<?xml version="1.0" encoding="UTF-8"?>
<!DOCTYPE svg PUBLIC "-//W3C//DTD SVG 1.1//EN" "http://www.w3.org/Graphics/SVG/1.1/DTD/svg11.dtd">
<!-- Creator: CorelDRAW -->
<svg xmlns="http://www.w3.org/2000/svg" xml:space="preserve" width="6.77333cm" height="5.06335cm" version="1.1" style="shape-rendering:geometricPrecision; text-rendering:geometricPrecision; image-rendering:optimizeQuality; fill-rule:evenodd; clip-rule:evenodd"
viewBox="0 0 6.75909 5.0527"
 xmlns:xlink="http://www.w3.org/1999/xlink"
 xmlns:xodm="http://www.corel.com/coreldraw/odm/2003">
 <defs>
  <style type="text/css">
   <![CDATA[
    .fil0 {fill:#1A3855;fill-rule:nonzero}
   ]]>
  </style>
 </defs>
 <g id="Layer_x0020_1">
  <metadata id="CorelCorpID_0Corel-Layer"/>
  <g id="_105553651338432">
   <path class="fil0" d="M1.29465 0.63082c0.16128,-0.06183 0.3274,-0.1381 0.46851,-0.21334 0.2089,-0.11128 0.40439,-0.24819 0.56662,-0.41407 0.00216,-0.0022 0.0051,-0.00342 0.00816,-0.00342 0.00546,0 0.01016,0.00386 0.01121,0.00921 0.00074,0.00376 0.00111,0.00947 0.00111,0.01714 -0.00354,1.61865 -0.00619,2.63193 -0.00793,3.03984 -0.00042,0.10027 -0.00902,0.20744 -0.0258,0.32152 -0.03214,0.21818 -0.11112,0.44097 -0.24351,0.61701 -0.21374,0.28446 -0.55478,0.44796 -0.9079,0.46486 -0.01069,0.00054 -0.01979,0.00019 -0.0273,-0.00103 -0.00083,-0.00012 -0.00164,-0.00048 -0.00231,-0.00102 -0.00205,-0.00166 -0.00238,-0.00463 -0.00076,-0.00664 0.00054,-0.00068 0.00127,-0.00119 0.00209,-0.00147 0.18718,-0.06826 0.34814,-0.1939 0.45719,-0.3628 0.17009,-0.2635 0.21668,-0.57725 0.22827,-0.88759 0.00753,-0.20215 0.00365,-0.36994 0.00572,-0.61376 0.00222,-0.26848 0.0046,-0.80287 0.00713,-1.60317 0.00027,-0.08583 -0.00343,-0.14167 -0.01111,-0.16755 -0.04127,-0.1393 -0.17826,-0.18263 -0.31558,-0.1816 -0.09799,0.00069 -0.16852,0.00082 -0.21159,0.0004 -0.0035,-0.00011 -0.0063,-0.00299 -0.0063,-0.00651 0,-0.00265 0.00162,-0.00505 0.00408,-0.00604l-0.00001 0z"/>
   <path class="fil0" d="M0.24778 3.00634c0.00026,-0.00006 0.00052,-0.00009 0.00079,-0.00009 0.00206,0 0.00373,0.00167 0.00373,0.00373 0,0.00035 -0.00005,0.0007 -0.00015,0.00103 -0.01631,0.05403 -0.03315,0.11883 -0.05056,0.19438 -0.02043,0.08836 -0.03159,0.18339 -0.03349,0.2851 -0.00691,0.37414 0.19762,0.71487 0.51487,0.90964 0.12006,0.07376 0.24781,0.1276 0.38327,0.16152 0.11493,0.02878 0.23454,0.04323 0.35882,0.04333 0.4555,0.00048 0.90068,-0.21453 1.12322,-0.62416 0.10358,-0.19072 0.15319,-0.39486 0.17303,-0.60994 0.00434,-0.04662 0.00668,-0.11988 0.00699,-0.21978 0.00641,-1.99116 0.00992,-3.03539 0.01056,-3.13269 0.00005,-0.00508 0.00072,-0.0087 0.00199,-0.01088 0.00245,-0.00407 0.00688,-0.00657 0.01163,-0.00657 0.0037,0 0.00724,0.00152 0.00981,0.00419 0.10921,0.11413 0.23493,0.21294 0.37866,0.28565 0.20914,0.10588 0.43225,0.12667 0.66741,0.15572 0.30351,0.03746 0.60773,0.1062 0.85218,0.29358 0.17215,0.13207 0.28914,0.32549 0.33256,0.53614 0.07841,0.38097 -0.06406,0.76765 -0.36153,1.0183 -0.19975,0.16831 -0.4314,0.26707 -0.69496,0.29628 -0.00058,0.00006 -0.00114,0.00051 -0.00167,0.00136 -0.00048,0.00074 -0.00074,0.00161 -0.00074,0.00249 0,0.00215 0.0015,0.00401 0.0036,0.00449 0.05905,0.01344 0.11559,0.03498 0.1696,0.0646 0.05064,0.02778 0.11136,0.06183 0.15572,0.0981 0.07588,0.06185 0.13792,0.1245 0.18613,0.18794 0.05087,0.06699 0.10492,0.15255 0.14881,0.23747 0.09192,0.17779 0.20518,0.41431 0.32391,0.62241 0.11043,0.1935 0.23557,0.36724 0.37542,0.52122 0.1208,0.13302 0.26184,0.24604 0.42311,0.33907 0.04239,0.02444 0.09453,0.04778 0.1358,0.06611 0.25424,0.11312 0.51619,0.13201 0.78583,0.05667 0.01492,-0.00418 0.05132,-0.01623 0.10921,-0.03611 0.00076,-0.00026 0.00161,-0.00035 0.00244,-0.00025 0.00134,0.00017 0.00203,0.00025 0.00208,0.00025 0.00031,0.00014 0.00064,0.00034 0.00095,0.00057 0.00248,0.00188 0.003,0.00538 0.00116,0.00783 -0.00024,0.00031 -0.00051,0.0006 -0.0008,0.00086 -0.18655,0.16138 -0.43164,0.25313 -0.67673,0.27892 -0.60384,0.06342 -1.19244,-0.26405 -1.55373,-0.73083 -0.11133,-0.14381 -0.21022,-0.3035 -0.29667,-0.47906 -0.02541,-0.0517 -0.05345,-0.11152 -0.08413,-0.17946 -0.12477,-0.27636 -0.20041,-0.45597 -0.32939,-0.65915 -0.02021,-0.03175 -0.05318,-0.07747 -0.09889,-0.13715 -0.05095,-0.06667 -0.12714,-0.14977 -0.20374,-0.20414 -0.04281,-0.03032 -0.07074,-0.04897 -0.08381,-0.05595 -0.00196,-0.00106 -0.00378,-0.00341 -0.00548,-0.00707 -0.00082,-0.00178 -0.00125,-0.0037 -0.00125,-0.00566 0,-0.0071 0.00552,-0.01296 0.0126,-0.01339 0.20879,-0.01323 0.39547,-0.07688 0.56002,-0.19097 0.11239,-0.07789 0.20433,-0.17159 0.27581,-0.28112 0.23184,-0.35502 0.21089,-0.81536 -0.06095,-1.1399 -0.0309,-0.03693 -0.0699,-0.07566 -0.11699,-0.1162 -0.14707,-0.12675 -0.33867,-0.20279 -0.53129,-0.22159 -0.17922,-0.01746 -0.30779,0.09254 -0.30867,0.27421 -0.00449,0.92217 -0.0078,1.69797 -0.00992,2.32742 -0.00058,0.1853 -0.02621,0.37052 -0.07691,0.55566 -0.07231,0.26454 -0.20382,0.50749 -0.39018,0.70631 -0.18969,0.20222 -0.43836,0.35224 -0.70638,0.44684 -0.55955,0.19763 -1.25332,0.16319 -1.71207,-0.25516 -0.18754,-0.17105 -0.30795,-0.39844 -0.34406,-0.6444 -0.03557,-0.24184 -0.00302,-0.47145 0.07516,-0.70249 0.03878,-0.11451 0.08931,-0.22139 0.15159,-0.32065 0.00154,-0.00238 0.00375,-0.00391 0.00667,-0.0046z"/>
   <path class="fil0" d="M0.96297 3.31897c-0.00156,0.00167 -0.00374,0.00261 -0.00603,0.00261 -0.00221,0 -0.00432,-0.00089 -0.00588,-0.00245l-0.3697 -0.37779c-0.00138,-0.0014 -0.00215,-0.00328 -0.00215,-0.00525 0,-0.00185 0.00068,-0.00362 0.00192,-0.00499l0.37414 -0.42455c0.00005,-0.00007 0.00013,-0.00015 0.00021,-0.00022 0.00148,-0.00149 0.00392,-0.00147 0.00544,0.00005 0.00007,0.00007 0.00014,0.00015 0.00021,0.00023 0.11986,0.14534 0.24312,0.29519 0.36035,0.42433 0.00096,0.00105 0.00149,0.00241 0.00149,0.00384 0,0.00146 -0.00056,0.00286 -0.00157,0.00393l-0.35843 0.38026z"/>
  </g>
 </g>
</svg>
