<?xml version="1.0" encoding="UTF-8"?>
<!DOCTYPE svg PUBLIC "-//W3C//DTD SVG 1.1//EN" "http://www.w3.org/Graphics/SVG/1.1/DTD/svg11.dtd">
<!-- Creator: CorelDRAW -->
<svg xmlns="http://www.w3.org/2000/svg" xml:space="preserve" width="20.6891cm" height="25.3307cm" version="1.1" style="shape-rendering:geometricPrecision; text-rendering:geometricPrecision; image-rendering:optimizeQuality; fill-rule:evenodd; clip-rule:evenodd"
viewBox="0 0 20.67483 25.3133"
 xmlns:xlink="http://www.w3.org/1999/xlink"
 xmlns:xodm="http://www.corel.com/coreldraw/odm/2003">
 <defs>
  <style type="text/css">
   <![CDATA[
    .fil0 {fill:#CDA434;fill-rule:nonzero}
   ]]>
  </style>
 </defs>
 <g id="Layer_x0020_1">
  <metadata id="CorelCorpID_0Corel-Layer"/>
  <path class="fil0" d="M2.87861 0c0.00495,0.20704 0.05702,0.39758 0.15623,0.57163 0.07311,0.12829 0.17743,0.24157 0.28744,0.32985 0.23521,0.18917 0.52317,0.25607 0.82544,0.24037 0.00024,-0.00001 0.00047,-0.00002 0.0007,-0.00002 0.00562,0 0.01017,0.00456 0.01017,0.01017 0,0.00001 0,0.00002 0,0.00003l0 0.62542c-0.0001,0.01337 0.00838,0.02555 0.02112,0.03008 0.4001,0.13927 0.68805,0.39905 0.86381,0.77932 0.06369,0.1376 0.10059,0.2756 0.1107,0.41401 0.00092,0.01241 0.00403,0.02224 0.00931,0.02948 0.00169,0.00234 0.0044,0.00373 0.00728,0.00373 0.00466,0 0.00854,-0.00357 0.00893,-0.0082 0.03258,-0.41006 0.26623,-0.79941 0.60489,-1.03098 0.11829,-0.08093 0.24433,-0.14405 0.37814,-0.18934 0.00976,-0.00343 0.01604,-0.01248 0.01587,-0.02257l0 -0.63043c0,-0.00001 0,-0.00002 0,-0.00003 0,-0.00553 0.00448,-0.01 0.01,-0.01 0.00023,0 0.00046,0.00001 0.00069,0.00002 0.09093,0.00553 0.19042,0.00098 0.29848,-0.01362 0.20197,-0.02735 0.38503,-0.11018 0.54919,-0.24847 0.27095,-0.22818 0.41155,-0.52168 0.42178,-0.88045l0.58851 0c0.00879,0.31417 0.12036,0.59024 0.34608,0.81406 0.16978,0.16818 0.37101,0.27205 0.60368,0.31159 0.09024,0.01529 0.19686,0.0211 0.31987,0.01743 0.00006,-0.00001 0.00012,-0.00001 0.00018,-0.00001 0.00571,0 0.01034,0.00464 0.01034,0.01035 0,0 0,0 0,0l0 0.62818c0,0 0,0.00001 0,0.00002 0,0.01113 0.00708,0.02103 0.01759,0.02463 0.35504,0.12209 0.638,0.35142 0.81837,0.68267 0.09587,0.17622 0.15013,0.35366 0.16278,0.5323 0.00037,0.00573 0.00506,0.01018 0.01069,0.01017l0.00051 0c0.00007,0 0.00014,0 0.00021,0 0.00605,0 0.01107,-0.00467 0.01152,-0.01069 0.01022,-0.11795 0.0308,-0.21963 0.06173,-0.30503 0.16289,-0.44913 0.46977,-0.75256 0.92063,-0.91028 0.00944,-0.00316 0.01597,-0.01212 0.01603,-0.02221l0.00001 -0.63045c0,-0.00001 0,-0.00001 0,-0.00002 0,-0.00524 0.00425,-0.00948 0.00948,-0.00948 0.00017,0 0.00034,0.00001 0.00051,0.00002 0.32125,0.015 0.61387,-0.05794 0.86252,-0.27365 0.26211,-0.22727 0.39776,-0.51713 0.40695,-0.86959l0.58955 0c0.00673,0.55576 0.40383,1.03513 0.95286,1.12634 0.09059,0.01506 0.19572,0.02058 0.31538,0.01655 0.00011,0 0.00023,0 0.00035,0 0.0061,0 0.01103,0.00494 0.01103,0.01103 0,0 0,0.00001 0,0.00001l0 0.62956c0.00011,0.00981 0.00625,0.01823 0.01529,0.02132 0.45813,0.16133 0.76727,0.47052 0.92741,0.92758 0.02436,0.06966 0.04328,0.16714 0.05673,0.29245 0.00063,0.00531 0.00502,0.00928 0.01022,0.00931l0.00029 0c0.00607,0.00005 0.01124,-0.00463 0.0119,-0.0108 0.01045,-0.12236 0.03173,-0.22721 0.0638,-0.31458 0.16336,-0.44464 0.46954,-0.74584 0.91856,-0.90355 0.00933,-0.00318 0.01588,-0.01213 0.01604,-0.02225l0 -0.63128c0,0 0,-0.00001 0,-0.00002 0,-0.00534 0.00433,-0.00966 0.00965,-0.00966 0.00023,0 0.00047,0.00001 0.00069,0.00003 0.31555,0.02258 0.61886,-0.06277 0.86286,-0.27193 0.23463,-0.20094 0.36735,-0.45809 0.39816,-0.77147 0.00334,-0.03334 0.00673,-0.06621 0.01017,-0.09863l0.58731 0c0.00622,0.29625 0.11191,0.5718 0.31624,0.78406 0.26951,0.27969 0.58163,0.37349 0.95149,0.35901 0.00017,-0.00001 0.00035,-0.00002 0.00052,-0.00002 0.00609,0 0.01103,0.00495 0.01103,0.01103 0,0.00001 0,0.00001 0,0.00002l0 0.62904c0.00009,0.01024 0.00656,0.01912 0.0161,0.02231 0.44875,0.15675 0.75508,0.45796 0.91901,0.90366 0.03713,0.10081 0.0622,0.22962 0.07519,0.38642l0 0.13554c-0.01874,0.28451 -0.11047,0.54115 -0.2752,0.76991 -0.17969,0.24951 -0.42867,0.41919 -0.71837,0.52196 -0.01017,0.00368 -0.01681,0.01328 -0.01673,0.02402l0 0.62847c0,0.00013 0,0.00025 0,0.00037 -0.00019,0.00542 -0.00467,0.00966 -0.01,0.00947 -0.00012,0 -0.00024,-0.00001 -0.00036,-0.00001 -0.31329,-0.02088 -0.62592,0.06501 -0.86112,0.27158 -0.06851,0.06024 -0.1191,0.11104 -0.15175,0.15243 -0.39539,0.50075 -0.32193,1.21704 0.18106,1.61502 0.2521,0.1995 0.51868,0.25623 0.83303,0.24709 0.00013,0.00001 0.00015,0.00001 0.00018,0.00001 0.00496,0 0.00896,0.00394 0.00896,0.00879 0,0.00003 0,0.00006 0,0.0001l0 0.62894c0.00002,0.01116 0.00707,0.02112 0.01759,0.02483 0.44775,0.15726 0.75365,0.45844 0.9177,0.90355 0.03678,0.0999 0.06179,0.22842 0.07501,0.38556l0 0.13312c-0.01127,0.176 -0.04909,0.33855 -0.11346,0.48764 -0.16933,0.39246 -0.47436,0.66439 -0.88165,0.8082 -0.00922,0.00333 -0.01524,0.012 -0.01518,0.02171l0 0.62923c0,-0.00011 0,-0.00005 0,0.00001 0,0.00562 -0.00463,0.01017 -0.01034,0.01017 -0.00006,0 -0.00013,0 -0.00019,0 -0.3352,-0.01501 -0.64541,0.06758 -0.89405,0.30175 -0.05276,0.04978 -0.08846,0.08605 -0.10708,0.10881 -0.16714,0.20578 -0.25515,0.43643 -0.264,0.69197 -0.01207,0.34884 0.13398,0.68664 0.4047,0.91442 0.25072,0.21088 0.53316,0.28211 0.85976,0.26951 0.00017,-0.00001 0.00034,-0.00002 0.00051,-0.00002 0.00591,0 0.01069,0.00479 0.01069,0.01069 0,0 0,0 0,0.00001l0 0.62681c-0.00009,0.01137 0.0071,0.02173 0.01793,0.02561 0.43695,0.15294 0.73935,0.44455 0.90719,0.87484 0.04471,0.11473 0.07311,0.25416 0.08518,0.41832l0 0.13485c-0.01334,0.17611 -0.048,0.32957 -0.10398,0.46039 -0.17404,0.40649 -0.47012,0.68221 -0.88821,0.82717 -0.01083,0.00379 -0.0181,0.01402 -0.01811,0.0255l0 0.62837c0,-0.00001 0,-0.00001 0,-0.00001 0,0.00505 -0.0041,0.00914 -0.00914,0.00914 -0.00011,0 -0.00023,0 -0.00034,-0.00001 -0.37107,-0.01568 -0.69439,0.08554 -0.95459,0.35919 -0.29331,0.30849 -0.38677,0.74888 -0.25141,1.15255 0.13588,0.4054 0.50212,0.7106 0.92855,0.76371 0.08898,0.01104 0.18163,0.01477 0.27797,0.0112 0.00007,0 0.00014,-0.00001 0.00019,-0.00001 0.00477,-0.00008 0.00869,0.00363 0.00877,0.00829 0,0.00006 0,0.00012 0,0.00017l0 0.63094c0,-0.00001 0,0 0,0 0,0.0103 0.0065,0.01949 0.01621,0.02292 0.45431,0.15934 0.76238,0.4657 0.92424,0.91909 0.03346,0.09369 0.05673,0.21709 0.06984,0.37022l0 0.14191c-0.0138,0.15679 -0.03914,0.28514 -0.07605,0.38504 -0.16439,0.44441 -0.4704,0.74474 -0.91804,0.90097 -0.00985,0.0035 -0.01628,0.01283 -0.01621,0.02329l0 0.62937c0,-0.00001 0,-0.00001 0,-0.00001 0,0.00534 -0.00433,0.00966 -0.00965,0.00966 -0.00011,0 -0.00024,0 -0.00035,-0.00001 -0.27744,-0.01171 -0.53557,0.03967 -0.76732,0.19796 -0.08536,0.05829 -0.19365,0.15829 -0.25038,0.23123 -0.16244,0.209 -0.24629,0.44707 -0.25159,0.71423l-0.58868 0c-0.00438,-0.17818 -0.04472,-0.34642 -0.12105,-0.50471 -0.1583,-0.3278 -0.48351,-0.56748 -0.83786,-0.62249 -0.0938,-0.01448 -0.19784,-0.01977 -0.31211,-0.01587 -0.00012,0 -0.00023,0 -0.00035,0 -0.00495,0 -0.00896,-0.00401 -0.00896,-0.00896 0,0 0,-0.00001 0,-0.00001l0 -0.63127c0.00008,-0.0096 -0.00601,-0.01837 -0.01515,-0.02167 -0.45249,-0.15845 -0.76017,-0.46311 -0.92305,-0.91396 -0.02667,-0.07392 -0.04685,-0.17571 -0.06053,-0.30538 -0.00062,-0.00619 -0.00582,-0.01088 -0.01201,-0.01088 -0.00002,0 -0.00004,0 -0.00006,0l-0.00034 0.00001c-0.0054,0.00006 -0.00982,0.00427 -0.01017,0.00964 -0.00874,0.1137 -0.0315,0.22246 -0.06829,0.32627 -0.15209,0.43039 -0.48471,0.7463 -0.91407,0.89372 -0.00969,0.00322 -0.01634,0.01234 -0.01637,0.02261l-0.00001 0.63092c0,-0.00001 0,-0.00001 0,0 0,0.00504 -0.0041,0.00913 -0.00913,0.00913 -0.00017,0 -0.00035,-0.00001 -0.00052,-0.00001 -0.09599,-0.00414 -0.19216,-0.00005 -0.28848,0.01225 -0.20543,0.02632 -0.3912,0.10903 -0.55732,0.24813 -0.27267,0.22819 -0.41418,0.52236 -0.42453,0.88252l-0.58834 0c-0.00506,-0.16324 -0.03351,-0.30619 -0.08535,-0.42884 -0.1614,-0.38263 -0.50109,-0.64748 -0.89924,-0.70216 -0.08369,-0.0116 -0.17894,-0.01569 -0.28573,-0.01224 -0.00005,-0.00001 -0.00011,0 -0.00017,0 -0.00543,0.00009 -0.00989,-0.00416 -0.00999,-0.00949 0,-0.00006 0,-0.00012 0,-0.00017l-0.00001 -0.63213c0.00015,-0.00824 -0.00516,-0.01591 -0.01314,-0.01871 -0.44122,-0.147 -0.77367,-0.47911 -0.9242,-0.91606 -0.03219,-0.09369 -0.05259,-0.19427 -0.06122,-0.30175 -0.00043,-0.00612 -0.00562,-0.01087 -0.01185,-0.01087l-0.00056 0c-0.00614,0.00007 -0.01118,0.00489 -0.01154,0.01102 -0.0092,0.14877 -0.04812,0.29667 -0.11675,0.44369 -0.17727,0.37935 -0.47609,0.63817 -0.86544,0.7725 -0.00906,0.00309 -0.01517,0.01161 -0.01517,0.02121l0 0.63026c0,-0.00001 0,-0.00001 0,0 0,0.00572 -0.00464,0.01034 -0.01034,0.01034 -0.00017,0 -0.00035,0 -0.00052,-0.00001 -0.35625,-0.01706 -0.67681,0.07933 -0.93133,0.33816 -0.05863,0.05966 -0.10191,0.10972 -0.12984,0.15019 -0.13358,0.19348 -0.20278,0.41183 -0.20761,0.65508l-0.58972 0c-0.00506,-0.27682 -0.09105,-0.5169 -0.25796,-0.72026 -0.22428,-0.27348 -0.5192,-0.41441 -0.88476,-0.42281 -0.05207,-0.00114 -0.09472,-0.00137 -0.12794,-0.00068 -0.00005,-0.00001 -0.00011,-0.00001 -0.00017,-0.00001 -0.00476,0 -0.00862,-0.00387 -0.00862,-0.00862 0,0 0,0 0,0l0 -0.63179c-0.00001,-0.00908 -0.00581,-0.01723 -0.01448,-0.02035 -0.46006,-0.16174 -0.76998,-0.47263 -0.92977,-0.93269 -0.02368,-0.0684 -0.04161,-0.16428 -0.0538,-0.28762 -0.00055,-0.00572 -0.0054,-0.01019 -0.01128,-0.01036l-0.00044 0.00001c-0.0059,-0.00005 -0.01091,0.00449 -0.01155,0.01047 -0.01081,0.1189 -0.03006,0.21778 -0.05777,0.29664 -0.16013,0.45465 -0.46873,0.76233 -0.92579,0.92304 -0.00888,0.003 -0.01508,0.0115 -0.01517,0.0211l0 0.63225c0,-0.00001 0,0 0,0 0,0.00477 -0.00386,0.00862 -0.00862,0.00862 -0.00017,0 -0.00034,-0.00001 -0.00051,-0.00001 -0.34471,-0.01707 -0.65906,0.07174 -0.91012,0.3159 -0.05265,0.05127 -0.08489,0.08421 -0.09673,0.09881 -0.16955,0.21071 -0.2575,0.4535 -0.26382,0.72836l-0.5892 0c-0.00793,-0.56973 -0.41764,-1.04961 -0.98133,-1.13065 -0.07506,-0.01081 -0.17104,-0.01518 -0.28796,-0.0131 -0.00005,-0.00001 -0.00011,-0.00001 -0.00017,-0.00001 -0.00543,0 -0.00982,-0.00441 -0.00982,-0.00983 0,0 0,0 0,0l-0.00001 -0.62903c0.00001,-0.00002 0.00001,-0.00002 0.00001,-0.00002 0,-0.01081 -0.00686,-0.02043 -0.01707,-0.02396 -0.58886,-0.20225 -0.97943,-0.71732 -0.99323,-1.34376l0 -0.00776c0.00638,-0.63162 0.39556,-1.15996 0.99305,-1.36412 0.01058,-0.00373 0.01741,-0.0136 0.01725,-0.02463l-0.00001 -0.62993c0.00001,-0.00002 0.00001,-0.00002 0.00001,-0.00003 0,-0.00496 0.00402,-0.00896 0.00896,-0.00896 0.00017,0 0.00035,0 0.00052,0.00001 0.37297,0.02037 0.70077,-0.08862 0.96218,-0.36624 0.23037,-0.24468 0.33659,-0.58213 0.29624,-0.91475 -0.06276,-0.51816 -0.47746,-0.93873 -0.99787,-0.99546 -0.07967,-0.00874 -0.16686,-0.01201 -0.26158,-0.00983 -0.00005,-0.00001 -0.00011,-0.00001 -0.00017,-0.00001 -0.00457,0 -0.00827,-0.00371 -0.00827,-0.00827 0,0 0,0 0,0l-0.00001 -0.62834c0.00015,-0.0116 -0.00726,-0.02231 -0.01846,-0.02628 -0.49919,-0.17098 -0.87112,-0.58069 -0.9663,-1.09816 -0.07087,-0.38521 0.01672,-0.76819 0.24451,-1.08875 0.18123,-0.25502 0.43074,-0.42505 0.72457,-0.52989 0.00952,-0.00343 0.01576,-0.0124 0.01568,-0.02242l0 -0.62989c0.00001,-0.00008 0.00001,-0.00013 0.00001,-0.00019 0.00009,-0.00514 0.00442,-0.00923 0.00964,-0.00914 0.00006,0 0.00013,0 0.00018,0 0.35659,0.01639 0.67491,-0.07862 0.93063,-0.3352 0.47109,-0.47281 0.44488,-1.24531 -0.06656,-1.67916 -0.25106,-0.21295 -0.53661,-0.28503 -0.8632,-0.27192 -0.00012,0.00001 -0.00023,0.00001 -0.00034,0.00001 -0.00572,0 -0.01035,-0.00464 -0.01035,-0.01035 0,0 0,-0.00001 0,-0.00001l-0.00001 -0.62662c-0.00015,-0.01206 -0.00769,-0.02238 -0.01881,-0.02616 -0.58333,-0.20628 -0.95509,-0.68962 -0.99148,-1.31383l0 -0.05155c0.01086,-0.62611 0.40297,-1.14928 0.99063,-1.34895 0.0119,-0.00422 0.01973,-0.0154 0.01968,-0.02792l-0.00002 -0.62871c0.00001,0.00006 0.00001,0.00002 0.00001,0 0,-0.0042 0.00348,-0.00758 0.00776,-0.00758 0.00003,0 0.00006,0 0.00009,0 0.11543,0.00379 0.26839,-0.00121 0.37822,-0.02794 0.53662,-0.13018 0.90494,-0.59749 0.88942,-1.14876 -0.01466,-0.51746 -0.37349,-0.95597 -0.87304,-1.07892 -0.12226,-0.03 -0.26434,-0.03518 -0.39608,-0.03138 -0.00005,0 -0.00011,0 -0.00016,0 -0.00334,0 -0.00604,-0.00271 -0.00604,-0.00604 0,0 0,0 0,0l-0.00001 -0.63369c-0.00001,-0.01035 -0.0066,-0.01957 -0.01638,-0.02293 -0.3059,-0.10588 -0.54644,-0.28124 -0.72164,-0.5261 -0.57076,-0.79768 -0.19795,-1.88245 0.72284,-2.19094 0.00925,-0.00323 0.01517,-0.0118 0.01501,-0.02139l-0.00001 -0.63128c0.00001,0 0.00001,-0.00001 0.00001,-0.00001 0,-0.00543 0.0044,-0.00983 0.00982,-0.00983 0.00012,0 0.00023,0 0.00035,0.00001 0.1061,0.00414 0.20795,-0.00087 0.30555,-0.015 0.20865,-0.03024 0.39562,-0.11778 0.56092,-0.26262 0.25945,-0.22715 0.39373,-0.51552 0.40281,-0.8651l0.58885 0zm17.51447 3.16417c0,-0.57335 -0.43195,-1.06565 -1.00202,-1.1329 -0.01358,-0.00177 -0.02345,-0.01324 -0.02327,-0.0267l0 -0.56371c0.00002,-0.00565 -0.0043,-0.01041 -0.01,-0.01103 -0.36884,-0.04156 -0.71302,-0.23037 -0.94546,-0.51695 -0.17634,-0.21727 -0.28113,-0.46983 -0.31434,-0.75768 -0.00081,-0.00702 -0.00328,-0.01052 -0.00741,-0.01052 -0.00437,0 -0.0069,0.00351 -0.00758,0.01052 -0.03323,0.28785 -0.138,0.54041 -0.31435,0.75768 -0.23243,0.28658 -0.57644,0.47557 -0.94545,0.51712 -0.00572,0.00063 -0.01003,0.00539 -0.01,0.01104l0 0.56403c0.0001,0.01307 -0.00974,0.02444 -0.02295,0.02617 -0.57022,0.06745 -1.00217,0.55975 -1.00217,1.1331 0,0.57317 0.43195,1.06547 1.00202,1.13272 0.01358,0.00178 0.02345,0.01324 0.02327,0.0267l0 0.5637c-0.00002,0.00566 0.0043,0.01042 0.01,0.01103 0.36884,0.04156 0.71302,0.23038 0.94546,0.51713 0.17634,0.21716 0.28113,0.46972 0.31434,0.75768 0.00081,0.0069 0.00328,0.01035 0.00741,0.01035 0.00437,0 0.0069,-0.00346 0.00758,-0.01035 0.03323,-0.28796 0.138,-0.54058 0.31435,-0.75785 0.23244,-0.28658 0.57644,-0.47557 0.94545,-0.51712 0.00572,-0.00062 0.01003,-0.00539 0.01,-0.01104l0 -0.56402c-0.00009,-0.01308 0.00976,-0.02445 0.02295,-0.02618 0.57022,-0.06745 1.00217,-0.55975 1.00217,-1.13292zm-15.50647 -0.00035c-0.00017,-0.57318 -0.43212,-1.06513 -1.00184,-1.13237 -0.01365,-0.0017 -0.02361,-0.01319 -0.02344,-0.02671l-0.00001 -0.56353c0.00004,-0.00566 -0.00429,-0.01041 -0.00999,-0.01103 -0.36885,-0.04156 -0.71285,-0.23038 -0.94546,-0.51696 -0.17623,-0.21715 -0.28096,-0.46965 -0.31417,-0.7575 -0.00081,-0.0069 -0.0034,-0.01034 -0.00776,-0.01034 -0.00414,0 -0.00661,0.00345 -0.00741,0.01034 -0.03322,0.28796 -0.1379,0.54052 -0.314,0.75767 -0.23244,0.28659 -0.57644,0.47557 -0.94528,0.51713 -0.00571,0.00062 -0.01002,0.00539 -0.01,0.01103l0.00017 0.56386c0.00018,0.01319 -0.00978,0.02469 -0.02312,0.02634 -0.57005,0.06746 -1.00199,0.55958 -1.00182,1.13276 0,0.57317 0.43195,1.0653 1.00184,1.13255 0.01359,0.00178 0.02346,0.01324 0.02328,0.0267l0.00017 0.56353c-0.00002,0.00566 0.0043,0.01042 0.01001,0.01104 0.36883,0.04138 0.71283,0.23037 0.94527,0.51678 0.17634,0.21715 0.28113,0.46966 0.31435,0.7575 0.0008,0.00702 0.00333,0.01052 0.00758,0.01052 0.00425,0 0.00678,-0.00351 0.00758,-0.01052 0.03311,-0.28785 0.13778,-0.54035 0.314,-0.7575 0.23244,-0.28659 0.57644,-0.47557 0.94528,-0.51713 0.00572,-0.00062 0.01003,-0.00539 0.01001,-0.01103l-0.00019 -0.56386c-0.00016,-0.01314 0.00971,-0.0246 0.02297,-0.02634 0.57021,-0.06746 1.00198,-0.55958 1.00198,-1.13293zm5.16888 0c0,-0.57318 -0.43212,-1.0653 -1.00202,-1.13255 -0.01357,-0.00177 -0.02344,-0.01324 -0.02326,-0.0267l-0.00001 -0.56353c0.00004,-0.00566 -0.00429,-0.01041 -0.00999,-0.01103 -0.36885,-0.04156 -0.71302,-0.23038 -0.94546,-0.51696 -0.17635,-0.21715 -0.28113,-0.46965 -0.31435,-0.7575 -0.0008,-0.00691 -0.00328,-0.01035 -0.00741,-0.01035 -0.00437,0 -0.00696,0.00345 -0.00775,0.01035 -0.03311,0.28785 -0.13778,0.5404 -0.314,0.75767 -0.23244,0.28658 -0.57644,0.47557 -0.94528,0.51713 -0.00571,0.00061 -0.01002,0.00538 -0.01,0.01103l0 0.56386c0.00019,0.01314 -0.00968,0.0246 -0.02295,0.02634 -0.57023,0.06746 -1.00199,0.55958 -1.00199,1.13293 0.00017,0.57317 0.43211,1.0653 1.00201,1.13255 0.01359,0.00178 0.02346,0.01324 0.02328,0.0267l-0.00001 0.56353c-0.00002,0.00566 0.00431,0.01042 0.01001,0.01104 0.36883,0.04155 0.71301,0.23037 0.94545,0.51695 0.17634,0.21715 0.28113,0.46966 0.31434,0.75751 0.00081,0.0069 0.00328,0.01034 0.00741,0.01034 0.00437,0 0.00696,-0.00345 0.00775,-0.01034 0.03311,-0.28785 0.13779,-0.54042 0.314,-0.75768 0.23245,-0.28659 0.57645,-0.47557 0.94529,-0.51713 0.00572,-0.00062 0.01003,-0.00539 0.01001,-0.01103l-0.00002 -0.56386c-0.00017,-0.01314 0.00971,-0.0246 0.02297,-0.02634 0.57021,-0.06746 1.00198,-0.55958 1.00198,-1.13293zm0.56507 0.00086c0,0.573 0.43194,1.06496 1.00149,1.13221 0.01359,0.00168 0.02353,0.01306 0.02345,0.02652l0 0.56336c-0.00003,0.00566 0.0043,0.01042 0.01,0.01104 0.36866,0.04155 0.71267,0.23037 0.94511,0.51678 0.17623,0.21704 0.28095,0.46943 0.31417,0.75716 0.0008,0.00702 0.00333,0.01051 0.00758,0.01051 0.00426,0 0.00679,-0.0035 0.00758,-0.01051 0.03311,-0.28773 0.13778,-0.54018 0.314,-0.75733 0.23227,-0.28641 0.5761,-0.4754 0.94477,-0.51696 0.00571,-0.00062 0.01003,-0.00538 0.01,-0.01103l-0.00001 -0.56369c-0.00017,-0.01313 0.0097,-0.0246 0.02296,-0.02634 0.56987,-0.06745 1.00164,-0.55941 1.00147,-1.13241 0,-0.573 -0.43177,-1.06495 -1.0015,-1.1322 -0.01351,-0.00177 -0.02336,-0.01314 -0.02327,-0.02653l-0.00017 -0.56336c0.00002,-0.00566 -0.0043,-0.01041 -0.01,-0.01103 -0.36866,-0.04156 -0.7125,-0.23038 -0.94494,-0.51679 -0.17623,-0.21703 -0.28101,-0.46942 -0.31434,-0.75716 -0.00081,-0.00701 -0.00334,-0.01051 -0.00759,-0.01051 -0.00414,0 -0.00661,0.00351 -0.00741,0.01051 -0.03322,0.28773 -0.13789,0.54019 -0.31399,0.75733 -0.23244,0.28642 -0.57627,0.4754 -0.94494,0.51696 -0.00572,0.00062 -0.01003,0.00539 -0.01,0.01103l0.00017 0.56369c0.00017,0.01319 -0.00979,0.02469 -0.02312,0.02634 -0.56987,0.06745 -1.00165,0.55941 -1.00147,1.13241zm2.59754 3.16365c0,0.56989 0.4235,1.05304 0.9839,1.13151 0.0845,0.01184 0.17928,0.01558 0.28434,0.01121 0.00012,-0.00002 0.00023,-0.00002 0.00035,-0.00002 0.00515,0 0.00931,0.00418 0.00931,0.00931 0,0 0,0.00001 0,0.00001l0 0.63008c0.00014,0.01141 0.00733,0.0212 0.01793,0.02477 0.54127,0.18801 0.92252,0.63875 0.98201,1.21312 0.00103,0.01035 0.00483,0.01553 0.01138,0.01553 0.00506,0 0.00815,-0.00518 0.00931,-0.01553 0.05949,-0.57437 0.44074,-1.02511 0.98235,-1.21323 0.01025,-0.00347 0.01744,-0.01325 0.01759,-0.02429l0 -0.63045c0,0 0,-0.00001 0,-0.00001 0,-0.00514 0.00417,-0.00931 0.00931,-0.00931 0.00011,0 0.00022,0 0.00034,0.00001 0.10507,0.00438 0.19985,0.00064 0.28434,-0.0112 0.5604,-0.07847 0.98391,-0.56162 0.98391,-1.13151 0,-0.5699 -0.42351,-1.05305 -0.98391,-1.13169 -0.08449,-0.01172 -0.17928,-0.0154 -0.28434,-0.01103 -0.00012,0 -0.00023,0.00001 -0.00034,0.00001 -0.00515,0 -0.00931,-0.00418 -0.00931,-0.00931 0,0 0,-0.00001 0,-0.00001l0 -0.63008c-0.00015,-0.01141 -0.00733,-0.0212 -0.01793,-0.02477 -0.54128,-0.188 -0.92252,-0.63875 -0.98201,-1.2133 -0.00116,-0.01023 -0.00495,-0.01534 -0.01138,-0.01534 -0.00518,0 -0.00828,0.00512 -0.00931,0.01534 -0.05949,0.57455 -0.44075,1.0253 -0.98236,1.21342 -0.01024,0.00346 -0.01744,0.01324 -0.01759,0.02428l0.00001 0.63045c0,0 0,0.00001 0,0.00001 0,0.00514 -0.00417,0.00931 -0.00931,0.00931 -0.00012,0 -0.00023,-0.00001 -0.00035,-0.00001 -0.10507,-0.00437 -0.19984,-0.00069 -0.28434,0.01103 -0.5604,0.07864 -0.9839,0.56179 -0.9839,1.13169zm-5.76205 0c0,-0.56973 -0.42333,-1.05271 -0.98356,-1.13117 -0.0845,-0.01184 -0.17922,-0.01558 -0.28417,-0.0112 -0.00011,0 -0.00022,0 -0.00034,0 -0.00514,0 -0.00931,-0.00417 -0.00931,-0.00931 0,0 0,0 0,0l0 -0.62974c-0.00015,-0.01141 -0.00733,-0.0212 -0.01793,-0.02477 -0.54111,-0.188 -0.92218,-0.63841 -0.98167,-1.21277 -0.00115,-0.01023 -0.00426,-0.01535 -0.00931,-0.01535 -0.00655,0 -0.01034,0.00512 -0.01138,0.01535 -0.05949,0.57436 -0.44057,1.02494 -0.982,1.21289 -0.01025,0.00346 -0.01744,0.01324 -0.01759,0.02428l0 0.63028c0,0 0,0 0,0 0,0.00515 -0.00417,0.00931 -0.00931,0.00931 -0.00012,0 -0.00023,0 -0.00034,0 -0.10497,-0.00437 -0.19968,-0.0007 -0.28417,0.01103 -0.56024,0.07863 -0.98356,0.56161 -0.98356,1.13117 0,0.56972 0.42332,1.0527 0.98356,1.13116 0.08449,0.01184 0.17927,0.01558 0.28434,0.01121 0.00012,-0.00001 0.00023,-0.00001 0.00035,-0.00001 0.00514,0 0.00931,0.00417 0.00931,0.00931 0,0 0,0 0,0l-0.00002 0.62974c0.00016,0.01141 0.00734,0.0212 0.01795,0.02477 0.54109,0.18801 0.92216,0.63841 0.98165,1.21278 0.00104,0.01023 0.00409,0.01534 0.00914,0.01534 0.00656,0 0.01034,-0.00511 0.01138,-0.01534 0.05949,-0.57437 0.44057,-1.02495 0.98201,-1.2129 0.01025,-0.00346 0.01744,-0.01324 0.01759,-0.02428l0 -0.63028c0,0 0,0 0,0 0,-0.00515 0.00418,-0.00931 0.00931,-0.00931 0.00012,0 0.00023,0 0.00035,0 0.10507,0.00437 0.19978,0.0007 0.28416,-0.01103 0.56023,-0.07863 0.98356,-0.56161 0.98356,-1.13116zm5.16853 -0.00017c0,-0.56956 -0.42333,-1.05255 -0.98339,-1.131 -0.08449,-0.01184 -0.17922,-0.01558 -0.28416,-0.0112 -0.00012,0 -0.00023,0 -0.00035,0 -0.00514,0 -0.00931,-0.00417 -0.00931,-0.00931 0,0 0,0 0,0l-0.00017 -0.62974c-0.00012,-0.01136 -0.00724,-0.02114 -0.01776,-0.02477 -0.5411,-0.18783 -0.92217,-0.63841 -0.98166,-1.21243 -0.00104,-0.01035 -0.00415,-0.01552 -0.00931,-0.01552 -0.00644,0 -0.01023,0.00517 -0.01138,0.01552 -0.05932,0.57402 -0.4404,1.0246 -0.98183,1.21272 -0.01018,0.00352 -0.0173,0.01329 -0.01742,0.02429l-0.00001 0.6301c0.00002,0 0.00002,0 0.00002,0 0,0.00515 -0.00418,0.00931 -0.00931,0.00931 -0.00012,0 -0.00023,0 -0.00035,0 -0.10508,-0.00437 -0.19985,-0.0007 -0.28435,0.01103 -0.56006,0.07863 -0.98338,0.56161 -0.98321,1.13117 0,0.56955 0.42333,1.05254 0.98338,1.13099 0.0845,0.01172 0.17922,0.0154 0.28418,0.01103 0.00012,-0.00001 0.00023,-0.00001 0.00035,-0.00001 0.00514,0 0.00931,0.00418 0.00931,0.00931 0,0 0,0.00001 0,0.00001l-0.00002 0.62991c0.00024,0.01134 0.00741,0.02105 0.01795,0.0246 0.54109,0.188 0.92216,0.6384 0.98165,1.2126 0.00104,0.01023 0.00414,0.01535 0.00931,0.01535 0.00645,0 0.01017,-0.00512 0.01121,-0.01535 0.05949,-0.5742 0.44057,-1.0246 0.98184,-1.21272 0.01024,-0.00346 0.01744,-0.01325 0.01759,-0.02429l-0.00001 -0.6301c0,0 0,-0.00001 0,-0.00001 0,-0.00514 0.00418,-0.00931 0.00931,-0.00931 0.00012,0 0.00023,0 0.00035,0.00001 0.10507,0.00437 0.19979,0.00064 0.28416,-0.0112 0.56024,-0.07847 0.98357,-0.56144 0.98339,-1.13099zm-7.73745 3.16381c0,-0.57335 -0.43212,-1.06564 -1.00201,-1.13289 -0.01365,-0.0017 -0.02361,-0.01319 -0.02344,-0.02671l-0.00002 -0.5637c0.00004,-0.00565 -0.00428,-0.01041 -0.00998,-0.01103 -0.36885,-0.04156 -0.71303,-0.23055 -0.94547,-0.51713 -0.17634,-0.21715 -0.28112,-0.46972 -0.31434,-0.75768 -0.0008,-0.00701 -0.00339,-0.01051 -0.00776,-0.01051 -0.00414,0 -0.00661,0.00351 -0.0074,0.01051 -0.03323,0.28796 -0.13795,0.54053 -0.31418,0.75768 -0.23261,0.28676 -0.57661,0.47574 -0.94563,0.5173 -0.0057,0.00062 -0.01002,0.00539 -0.00999,0.01103l0.00017 0.56403c0.00017,0.0132 -0.00979,0.02469 -0.02312,0.02635 -0.57023,0.06745 -1.00234,0.55958 -1.00217,1.13293 0,0.5735 0.43211,1.06564 1.00201,1.13305 0.0136,0.00169 0.02354,0.01308 0.02345,0.02653l0 0.56371c-0.00002,0.00566 0.0043,0.01041 0.01,0.01103 0.36884,0.04156 0.71301,0.23055 0.94545,0.51713 0.17635,0.21727 0.28113,0.46983 0.31435,0.75768 0.0008,0.00702 0.00339,0.01052 0.00775,0.01052 0.00414,0 0.00662,-0.00351 0.00741,-0.01052 0.03323,-0.28785 0.13795,-0.54041 0.31417,-0.75768 0.23262,-0.28675 0.57662,-0.47574 0.94564,-0.5173 0.00572,-0.00061 0.01003,-0.00538 0.01,-0.01103l-0.00018 -0.56403c-0.00016,-0.01319 0.0098,-0.02469 0.02313,-0.02634 0.57021,-0.06728 1.00233,-0.55958 1.00216,-1.13293zm10.90006 0.00069c0.00017,0.57351 0.43229,1.06582 1.00236,1.13307 0.01359,0.00177 0.02346,0.01323 0.02328,0.0267l0.00017 0.56388c-0.00003,0.00565 0.00429,0.01041 0.01,0.01103 0.36883,0.04155 0.71301,0.23037 0.94562,0.51712 0.17635,0.21727 0.28119,0.46989 0.31452,0.75786 0.00081,0.00701 0.00328,0.01051 0.00741,0.01051 0.00426,0 0.00679,-0.00351 0.00758,-0.01051 0.03323,-0.28797 0.138,-0.54059 0.31435,-0.75786 0.23261,-0.28675 0.57661,-0.47574 0.94562,-0.51729 0.00572,-0.00062 0.01003,-0.00539 0.01,-0.01104l0 -0.5642c-0.00018,-0.01314 0.00969,-0.0246 0.02295,-0.02634 0.57057,-0.06746 1.00252,-0.55975 1.00252,-1.13328 0,-0.57334 -0.43212,-1.06581 -1.00219,-1.13306 -0.01365,-0.00169 -0.02362,-0.01318 -0.02345,-0.0267l0 -0.56388c0.00003,-0.00565 -0.00429,-0.01041 -0.01,-0.01103 -0.36901,-0.04139 -0.71319,-0.23037 -0.9458,-0.51713 -0.17634,-0.21727 -0.28113,-0.46988 -0.31434,-0.75785 -0.00081,-0.00702 -0.00328,-0.01052 -0.00741,-0.01052 -0.00438,0 -0.00696,0.00351 -0.00776,0.01052 -0.03322,0.28797 -0.13794,0.54058 -0.31417,0.75785 -0.23261,0.28676 -0.57679,0.47574 -0.9458,0.5173 -0.00571,0.00062 -0.01003,0.00539 -0.01,0.01103l0.00018 0.56421c0.00017,0.01319 -0.0098,0.02468 -0.02313,0.02634 -0.57039,0.06745 -1.00251,0.55975 -1.00251,1.13327zm-5.73153 -0.00017c0,-0.57335 -0.43212,-1.06547 -1.00201,-1.13272 -0.01358,-0.00178 -0.02345,-0.01324 -0.02327,-0.02671l-0.00001 -0.5637c0.00004,-0.00566 -0.00429,-0.01042 -0.00999,-0.01104 -0.36902,-0.04155 -0.71302,-0.23036 -0.94546,-0.51695 -0.17635,-0.21715 -0.28113,-0.46971 -0.31434,-0.75767 -0.00081,-0.0069 -0.0034,-0.01034 -0.00776,-0.01034 -0.00414,0 -0.00661,0.00345 -0.00741,0.01034 -0.03322,0.28796 -0.13794,0.54052 -0.31417,0.75767 -0.23244,0.28676 -0.57644,0.47557 -0.94528,0.51713 -0.00571,0.00062 -0.01002,0.00539 -0.01,0.01103l0 0.56403c0.00019,0.01314 -0.00968,0.02461 -0.02295,0.02635 -0.5704,0.06745 -1.00217,0.55958 -1.00217,1.13292 0,0.57335 0.43194,1.06548 1.00202,1.13272 0.01359,0.00178 0.02346,0.01324 0.02327,0.02671l0 0.56353c-0.00002,0.00565 0.0043,0.01041 0.01,0.01103 0.36884,0.04156 0.71301,0.23054 0.94545,0.51713 0.17635,0.21715 0.28113,0.46972 0.31435,0.75768 0.0008,0.0069 0.00333,0.01034 0.00758,0.01034 0.00426,0 0.00679,-0.00345 0.00758,-0.01034 0.03323,-0.28796 0.13795,-0.54053 0.31417,-0.75768 0.23245,-0.28676 0.57645,-0.47575 0.94529,-0.5173 0.00572,-0.00062 0.01003,-0.00539 0.01001,-0.01103l-0.00002 -0.56386c-0.00017,-0.01314 0.00971,-0.02461 0.02297,-0.02635 0.57021,-0.06745 1.00215,-0.55975 1.00215,-1.13292zm0.56455 0.00052c0,0.57317 0.43195,1.06512 1.00167,1.13237 0.01365,0.00169 0.02361,0.01318 0.02344,0.0267l0 0.56354c-0.00002,0.00565 0.0043,0.01041 0.01,0.01103 0.36867,0.04138 0.71267,0.2302 0.94511,0.51678 0.17624,0.21704 0.28096,0.46949 0.31417,0.75733 0.00081,0.00702 0.00334,0.01052 0.00759,0.01052 0.00425,0 0.00678,-0.00351 0.00758,-0.01052 0.03322,-0.28784 0.13789,-0.54029 0.314,-0.75733 0.23244,-0.28658 0.57644,-0.47557 0.94511,-0.51713 0.00571,-0.00061 0.01002,-0.00538 0.01,-0.01103l0 -0.56369c-0.00018,-0.01313 0.00969,-0.0246 0.02295,-0.02634 0.57005,-0.06745 1.00182,-0.55958 1.00182,-1.13258 0,-0.57317 -0.43194,-1.06513 -1.00167,-1.13237 -0.01358,-0.00178 -0.02345,-0.01324 -0.02327,-0.0267l-0.00001 -0.56354c0.00004,-0.00566 -0.00429,-0.01041 -0.00999,-0.01103 -0.36884,-0.04139 -0.71285,-0.2302 -0.94529,-0.51679 -0.17622,-0.21703 -0.28095,-0.46948 -0.31417,-0.75733 -0.0008,-0.00702 -0.00327,-0.01051 -0.0074,-0.01051 -0.00438,0 -0.00697,0.0035 -0.00776,0.01051 -0.03311,0.28785 -0.13778,0.5403 -0.314,0.75733 -0.23244,0.28659 -0.57627,0.47557 -0.94511,0.51713 -0.00572,0.00062 -0.01003,0.00539 -0.01,0.01103l0 0.56369c0.00018,0.01314 -0.00969,0.0246 -0.02295,0.02634 -0.57005,0.06746 -1.00182,0.55958 -1.00182,1.13259zm2.59789 3.16329c0,0.5699 0.4235,1.05305 0.9839,1.13169 0.0845,0.01184 0.17928,0.01557 0.28434,0.0112 0.00012,-0.00001 0.00023,-0.00001 0.00035,-0.00001 0.00515,0 0.00931,0.00417 0.00931,0.0093 0,0 0,0.00001 0,0.00001l0 0.63009c0.00014,0.01139 0.00733,0.02119 0.01793,0.02476 0.54127,0.18802 0.92252,0.63876 0.98201,1.21331 0.00103,0.01023 0.00483,0.01534 0.01138,0.01534 0.00506,0 0.00815,-0.00511 0.00931,-0.01534 0.05949,-0.57455 0.44074,-1.02529 0.98235,-1.21342 0.01025,-0.00347 0.01744,-0.01326 0.01759,-0.02429l0 -0.63044c0,-0.00001 0,-0.00002 0,-0.00002 0,-0.00514 0.00417,-0.0093 0.00931,-0.0093 0.00011,0 0.00022,0 0.00034,0 0.10507,0.00438 0.19985,0.00065 0.28434,-0.01119 0.56058,-0.07846 0.98408,-0.56162 0.98408,-1.13151 0,-0.5699 -0.4235,-1.05306 -0.98391,-1.13169 -0.08449,-0.01183 -0.17928,-0.01558 -0.28433,-0.0112 -0.00012,0 -0.00023,0.00001 -0.00035,0.00001 -0.00514,0 -0.00931,-0.00418 -0.00931,-0.00931 0,0 0,-0.00001 0,-0.00001l0 -0.63008c-0.00015,-0.01141 -0.00733,-0.0212 -0.01793,-0.02477 -0.54128,-0.188 -0.92252,-0.63875 -0.98201,-1.2133 -0.00115,-0.01023 -0.00495,-0.01534 -0.01138,-0.01534 -0.00518,0 -0.00827,0.00512 -0.00931,0.01534 -0.05949,0.57455 -0.44075,1.0253 -0.98235,1.21342 -0.01025,0.00346 -0.01744,0.01324 -0.01759,0.02428l-0.00017 0.63045c0,0 0,0.00001 0,0.00001 0,0.00514 -0.00417,0.00931 -0.00931,0.00931 -0.00012,0 -0.00023,-0.00001 -0.00035,-0.00001 -0.10507,-0.00437 -0.19984,-0.00069 -0.28434,0.01103 -0.5604,0.07864 -0.9839,0.56179 -0.9839,1.13168zm-10.33724 0.00035c0,0.56972 0.42332,1.05288 0.98373,1.13151 0.08449,0.01173 0.17928,0.0154 0.28434,0.01103 0.00012,-0.00001 0.00024,-0.00001 0.00035,-0.00001 0.00515,0 0.00931,0.00417 0.00931,0.0093 0,0 0,0.00001 0,0.00001l0 0.63009c0.00015,0.01139 0.00733,0.02119 0.01793,0.02476 0.54127,0.18802 0.92234,0.63859 0.98183,1.21314 0.00115,0.01023 0.00495,0.01535 0.01138,0.01535 0.00518,0 0.00827,-0.00512 0.00931,-0.01535 0.05949,-0.57455 0.44074,-1.02512 0.98235,-1.21325 0.01026,-0.00347 0.01745,-0.01326 0.0176,-0.02429l-0.00001 -0.63044c0.00001,-0.00001 0.00001,-0.00002 0.00001,-0.00002 0,-0.00514 0.00417,-0.0093 0.00931,-0.0093 0.00012,0 0.00023,0 0.00035,0 0.10506,0.00438 0.19984,0.00071 0.28432,-0.01102 0.56024,-0.07863 0.98374,-0.56161 0.98374,-1.13151 0,-0.5699 -0.4235,-1.05288 -0.98374,-1.13151 -0.08448,-0.01184 -0.17928,-0.01558 -0.28434,-0.0112 -0.0001,0 -0.00021,0 -0.00033,0 -0.00515,0 -0.00931,-0.00417 -0.00931,-0.00931 0,0 0,0 0,0l-0.00001 -0.62991c-0.00014,-0.01141 -0.00732,-0.0212 -0.01793,-0.02477 -0.54128,-0.18801 -0.92252,-0.63875 -0.98201,-1.21313 -0.00104,-0.01023 -0.00483,-0.01535 -0.01138,-0.01535 -0.00506,0 -0.0081,0.00512 -0.00914,0.01535 -0.05949,0.57438 -0.44074,1.02512 -0.98235,1.21325 -0.01024,0.00346 -0.01743,0.01324 -0.01758,0.02428l0 0.63028c0,0 0,0 0,0 0,0.00515 -0.00417,0.00931 -0.00931,0.00931 -0.00011,0 -0.00023,0 -0.00034,0 -0.10508,-0.00438 -0.19986,-0.00064 -0.28435,0.0112 -0.56041,0.07846 -0.98373,0.56161 -0.98373,1.13151zm9.74407 -0.00017c0,-0.56973 -0.42333,-1.05254 -0.98356,-1.13117 -0.0845,-0.01172 -0.17922,-0.0154 -0.28417,-0.01103 -0.00011,0 -0.00023,0.00001 -0.00034,0.00001 -0.00515,0 -0.00931,-0.00418 -0.00931,-0.00931 0,0 0,-0.00001 0,-0.00001l-0.00018 -0.62991c-0.00014,-0.0114 -0.00733,-0.0212 -0.01793,-0.02477 -0.54093,-0.18783 -0.92217,-0.6384 -0.98166,-1.21261 -0.00104,-0.01034 -0.00409,-0.01551 -0.00914,-0.01551 -0.00655,0 -0.01034,0.00517 -0.01138,0.01551 -0.05949,0.57421 -0.44057,1.02478 -0.982,1.2129 -0.01025,0.00346 -0.01744,0.01325 -0.01759,0.02429l-0.00001 0.6301c0.00001,0 0.00001,0.00001 0.00001,0.00001 0,0.00514 -0.00417,0.00931 -0.00931,0.00931 -0.00012,0 -0.00023,-0.00001 -0.00034,-0.00001 -0.10508,-0.00437 -0.1998,-0.00063 -0.28418,0.0112 -0.56023,0.07847 -0.98355,0.56145 -0.98355,1.13117 0,0.56972 0.42332,1.0527 0.98355,1.13117 0.0845,0.01184 0.17928,0.01557 0.28435,0.0112 0.00005,-0.00001 0.00011,-0.00001 0.00017,-0.00001 0.00515,0 0.00931,0.00417 0.00931,0.00931 0,0 0,0 0,0l0.00016 0.62974c0.00016,0.0114 0.00734,0.02119 0.01795,0.02476 0.54092,0.18802 0.92216,0.63859 0.98165,1.2128 0.00104,0.01022 0.00409,0.01534 0.00914,0.01534 0.00656,0 0.01034,-0.00512 0.01138,-0.01534 0.05949,-0.57438 0.44057,-1.02495 0.98201,-1.2129 0.01024,-0.00348 0.01744,-0.01326 0.01759,-0.0243l0 -0.63026c0,-0.00001 0,-0.00002 0,-0.00002 0,-0.00515 0.00417,-0.00931 0.00931,-0.00931 0.00011,0 0.00023,0.00001 0.00034,0.00001 0.10508,0.00438 0.19979,0.0007 0.28417,-0.01102 0.56023,-0.07864 0.98356,-0.56162 0.98356,-1.13134zm-7.73763 3.16399c0,-0.57351 -0.43212,-1.06565 -1.00218,-1.13307 -0.01353,-0.00178 -0.02337,-0.01315 -0.02327,-0.02654l-0.00001 -0.56387c0.00003,-0.00567 -0.00429,-0.01043 -0.00999,-0.01104 -0.36902,-0.04137 -0.7132,-0.23036 -0.94581,-0.51694 -0.17623,-0.21727 -0.28101,-0.46989 -0.31434,-0.75785 -0.00081,-0.00691 -0.00334,-0.01035 -0.00759,-0.01035 -0.00425,0 -0.00678,0.00345 -0.00758,0.01035 -0.03311,0.28796 -0.13784,0.54058 -0.31417,0.75785 -0.23244,0.28675 -0.57661,0.47574 -0.94546,0.51729 -0.0057,0.00061 -0.01002,0.00538 -0.00999,0.01102l0 0.56405c0.00018,0.01313 -0.00969,0.02459 -0.02295,0.02633 -0.5704,0.06747 -1.00234,0.55976 -1.00234,1.13329 0,0.57334 0.43211,1.06564 1.00218,1.13288 0.01366,0.00169 0.02362,0.01318 0.02345,0.0267l0 0.56371c-0.00002,0.00565 0.0043,0.01041 0.01,0.01103 0.36884,0.04156 0.71301,0.23038 0.94563,0.51713 0.17634,0.21716 0.28113,0.46972 0.31434,0.75768 0.00081,0.0069 0.0034,0.01035 0.00776,0.01035 0.00414,0 0.00661,-0.00345 0.0074,-0.01035 0.03323,-0.28796 0.13795,-0.54058 0.31418,-0.75785 0.23261,-0.28675 0.57661,-0.47574 0.94563,-0.51729 0.00572,-0.00064 0.01003,-0.0054 0.01,-0.01105l-0.00018 -0.56402c-0.00016,-0.0132 0.0098,-0.0247 0.02313,-0.02635 0.57021,-0.06745 1.00233,-0.55975 1.00216,-1.13309zm5.16836 0.00034c0,-0.57317 -0.43194,-1.0653 -1.00184,-1.13254 -0.01365,-0.00171 -0.02361,-0.01321 -0.02344,-0.02672l-0.00001 -0.56352c0.00004,-0.00567 -0.00429,-0.01043 -0.00999,-0.01105 -0.36884,-0.04154 -0.71285,-0.23035 -0.94546,-0.51694 -0.17623,-0.21715 -0.28101,-0.46971 -0.31434,-0.75767 -0.00081,-0.0069 -0.00328,-0.01035 -0.00741,-0.01035 -0.00426,0 -0.00679,0.00346 -0.00759,0.01035 -0.03322,0.28796 -0.13794,0.54052 -0.31417,0.75767 -0.23244,0.28659 -0.57644,0.47557 -0.94528,0.51712 -0.00571,0.00062 -0.01002,0.00539 -0.01,0.01103l0 0.56404c0.0001,0.01306 -0.00975,0.02443 -0.02295,0.02616 -0.57022,0.06747 -1.00216,0.55976 -1.00199,1.13294 0,0.57335 0.43194,1.06547 1.00184,1.13272 0.01366,0.00168 0.02362,0.01317 0.02345,0.02669l-0.00001 0.56354c-0.00002,0.00565 0.00431,0.01041 0.01001,0.01103 0.36883,0.04156 0.71284,0.23038 0.94545,0.51696 0.17623,0.21716 0.28101,0.46966 0.31435,0.7575 0.0008,0.00702 0.00327,0.01052 0.0074,0.01052 0.00426,0 0.00679,-0.00351 0.00758,-0.01052 0.03323,-0.28785 0.13795,-0.54034 0.31418,-0.7575 0.23244,-0.28675 0.57644,-0.47557 0.94528,-0.51729 0.00572,-0.00064 0.01003,-0.0054 0.01001,-0.01105l-0.00001 -0.56384c-0.00018,-0.01316 0.00969,-0.02462 0.02296,-0.02637 0.57021,-0.06744 1.00216,-0.55956 1.00198,-1.13291zm10.33742 0c0,-0.57335 -0.43195,-1.06547 -1.00202,-1.13289 -0.01358,-0.00179 -0.02345,-0.01325 -0.02327,-0.02671l0 -0.5637c0.00002,-0.00567 -0.0043,-0.01042 -0.01,-0.01104 -0.36901,-0.04138 -0.71302,-0.23036 -0.94563,-0.51712 -0.17623,-0.21715 -0.28096,-0.46972 -0.31417,-0.75768 -0.00081,-0.0069 -0.0034,-0.01034 -0.00776,-0.01034 -0.00414,0 -0.00661,0.00345 -0.00741,0.01034 -0.03322,0.28796 -0.13799,0.54059 -0.31434,0.75785 -0.23244,0.28659 -0.57644,0.47557 -0.94545,0.51713 -0.00572,0.00061 -0.01003,0.00537 -0.01,0.01102l0 0.56404c0.00018,0.01313 -0.00969,0.02459 -0.02295,0.02633 -0.57022,0.0673 -1.00234,0.5596 -1.00234,1.13295 0,0.57334 0.43212,1.06547 1.00201,1.13288 0.01365,0.00169 0.02361,0.01318 0.02345,0.0267l0 0.56371c-0.00003,0.00565 0.00429,0.01041 0.01,0.01103 0.36884,0.04156 0.71284,0.23038 0.94545,0.51713 0.17635,0.21716 0.28113,0.46972 0.31435,0.75768 0.0008,0.0069 0.00333,0.01035 0.00758,0.01035 0.00414,0 0.00661,-0.00345 0.00741,-0.01035 0.03322,-0.28796 0.138,-0.54052 0.31434,-0.75768 0.23244,-0.28675 0.57662,-0.47574 0.94546,-0.5173 0.00571,-0.00063 0.01002,-0.0054 0.01,-0.01104l0 -0.56401c-0.0001,-0.01309 0.00975,-0.02446 0.02295,-0.02619 0.57039,-0.06744 1.00234,-0.55974 1.00234,-1.13309zm-5.16958 -0.00017c-0.00017,-0.573 -0.43211,-1.06478 -1.00166,-1.13203 -0.01365,-0.00171 -0.02362,-0.0132 -0.02345,-0.02672l0 -0.56334c0.00003,-0.00567 -0.00429,-0.01043 -0.01,-0.01105 -0.36867,-0.04137 -0.71267,-0.23019 -0.94511,-0.5166 -0.17623,-0.21703 -0.28096,-0.46948 -0.31417,-0.75733 -0.00081,-0.0069 -0.0034,-0.01034 -0.00776,-0.01034 -0.00414,0 -0.00661,0.00345 -0.00741,0.01034 -0.03311,0.28785 -0.13778,0.5403 -0.31399,0.75733 -0.23227,0.28659 -0.5761,0.47557 -0.94477,0.51713 -0.00571,0.00061 -0.01002,0.00538 -0.01,0.01102l0 0.5637c0.00019,0.01313 -0.00968,0.02459 -0.02295,0.02633 -0.56987,0.06747 -1.00164,0.55942 -1.00147,1.13242 0,0.57318 0.43194,1.06496 1.00167,1.13221 0.01358,0.00176 0.02345,0.01322 0.02327,0.02668l0.00017 0.56338c-0.00002,0.00564 0.0043,0.0104 0.01,0.01102 0.36867,0.04139 0.7125,0.23021 0.94494,0.51662 0.17623,0.21704 0.28101,0.46943 0.31435,0.75716 0.0008,0.00702 0.00333,0.01051 0.00758,0.01051 0.00414,0 0.00661,-0.0035 0.00741,-0.01051 0.03322,-0.28773 0.13789,-0.54018 0.31399,-0.75733 0.23245,-0.28659 0.57628,-0.4754 0.94494,-0.51696 0.00572,-0.00063 0.01003,-0.0054 0.01,-0.01104l-0.00017 -0.56368c-0.00018,-0.01315 0.00969,-0.02461 0.02295,-0.02635 0.57005,-0.06744 1.00164,-0.55957 1.00164,-1.13257zm-7.76693 3.16434c0,-0.56973 -0.4235,-1.05288 -0.98374,-1.13134 -0.08449,-0.01184 -0.17928,-0.01558 -0.28434,-0.01121 -0.00011,-0.00001 -0.00022,-0.00001 -0.00034,-0.00001 -0.00514,0 -0.00931,-0.00417 -0.00931,-0.00931 0,0 0,0 0,0l0 -0.62989c-0.00014,-0.01142 -0.00732,-0.02122 -0.01793,-0.02479 -0.54111,-0.188 -0.92235,-0.63874 -0.98184,-1.21294 -0.00104,-0.01034 -0.00414,-0.01551 -0.00931,-0.01551 -0.00644,0 -0.01023,0.00517 -0.01138,0.01551 -0.05949,0.5742 -0.44057,1.02494 -0.98218,1.21307 -0.01024,0.00345 -0.01743,0.01324 -0.01758,0.02427l0 0.63029c0,-0.00001 0,-0.00001 0,-0.00001 0,0.00515 -0.00417,0.00931 -0.00931,0.00931 -0.00011,0 -0.00023,0 -0.00034,0 -0.10508,-0.00437 -0.19986,-0.00062 -0.28435,0.01122 -0.56023,0.07846 -0.98373,0.56161 -0.98373,1.13134 0,0.56972 0.4235,1.05287 0.98373,1.13133 0.08449,0.01184 0.17928,0.01558 0.28434,0.01121 0.00012,-0.00001 0.00024,-0.00002 0.00035,-0.00002 0.00515,0 0.00931,0.00417 0.00931,0.00931 0,0 0,0.00001 0,0.00001l0 0.62991c0.00015,0.01141 0.00733,0.02119 0.01793,0.02476 0.5411,0.18802 0.92234,0.63876 0.98183,1.21314 0.00104,0.01022 0.00414,0.01534 0.00931,0.01534 0.00645,0 0.01017,-0.00512 0.0112,-0.01534 0.05967,-0.57438 0.44075,-1.02512 0.98236,-1.21325 0.01026,-0.00347 0.01745,-0.01324 0.0176,-0.02429l-0.00001 -0.63027c0,0 0,-0.00001 0,-0.00001 0,-0.00515 0.00418,-0.00931 0.00931,-0.00931 0.00012,0 0.00023,0.00001 0.00035,0.00001 0.10506,0.00437 0.19984,0.0007 0.28433,-0.01103 0.56024,-0.07863 0.98374,-0.56161 0.98374,-1.1315zm5.16819 -0.00018c0,-0.56972 -0.42333,-1.05254 -0.98357,-1.13116 -0.08449,-0.01172 -0.17922,-0.01541 -0.28416,-0.01104 -0.00012,0 -0.00023,0 -0.00035,0 -0.00514,0 -0.00931,-0.00417 -0.00931,-0.00931 0,0 0,-0.00001 0,-0.00001l0 -0.62989c-0.00014,-0.01143 -0.00733,-0.02122 -0.01793,-0.02479 -0.5411,-0.18782 -0.92217,-0.63839 -0.98166,-1.21259 -0.00104,-0.01023 -0.00483,-0.01534 -0.01138,-0.01534 -0.00506,0 -0.0081,0.00511 -0.00914,0.01534 -0.05949,0.5742 -0.44057,1.02477 -0.982,1.21273 -0.01025,0.00344 -0.01744,0.01322 -0.01759,0.02426l-0.00001 0.6303c0.00001,-0.00002 0.00001,-0.00001 0.00001,-0.00001 0,0.00515 -0.00417,0.00931 -0.00931,0.00931 -0.00012,0 -0.00023,0 -0.00034,-0.00001 -0.10508,-0.00436 -0.1998,-0.00067 -0.28418,0.01105 -0.56023,0.07863 -0.98355,0.56161 -0.98355,1.13116 0,0.56973 0.42332,1.05271 0.98355,1.13117 0.08438,0.01172 0.17911,0.01546 0.28417,0.0112 0.00012,-0.00001 0.00023,-0.00002 0.00035,-0.00002 0.00508,0 0.00922,0.00408 0.00931,0.00915l-0.00001 0.62991c0.00016,0.0114 0.00734,0.02119 0.01795,0.02476 0.54109,0.18785 0.92216,0.63842 0.98165,1.21262 0.00104,0.01035 0.00484,0.01552 0.01138,0.01552 0.00506,0 0.0081,-0.00517 0.00914,-0.01552 0.05949,-0.5742 0.44057,-1.02477 0.98201,-1.21272 0.01024,-0.00348 0.01744,-0.01326 0.01759,-0.0243l-0.00001 -0.63026c0,-0.00002 0,-0.00002 0,-0.00002 0,-0.00515 0.00418,-0.00931 0.00931,-0.00931 0.00012,0 0.00023,0 0.00035,0 0.10495,0.00439 0.19967,0.00071 0.28416,-0.01101 0.56024,-0.07846 0.98357,-0.56144 0.98357,-1.13117zm5.16974 0.00018c0,-0.5699 -0.42351,-1.05305 -0.98391,-1.13169 -0.08449,-0.01172 -0.17928,-0.01541 -0.28434,-0.01104 -0.00012,0 -0.00023,0 -0.00034,0 -0.00515,0 -0.00931,-0.00417 -0.00931,-0.00931 0,0 0,0 0,0l0 -0.63007c-0.00015,-0.01142 -0.00733,-0.02122 -0.01793,-0.02479 -0.54128,-0.18799 -0.92252,-0.63873 -0.98201,-1.21328 -0.00104,-0.01023 -0.00483,-0.01535 -0.01138,-0.01535 -0.00506,0 -0.00816,0.00512 -0.00931,0.01535 -0.05949,0.57455 -0.44075,1.02529 -0.98236,1.21341 -0.01024,0.00345 -0.01744,0.01324 -0.01759,0.02428l0.00001 0.63046c0,-0.00001 0,-0.00001 0,-0.00001 0,0.00515 -0.00417,0.00931 -0.00931,0.00931 -0.00012,0 -0.00023,0 -0.00035,0 -0.10507,-0.00437 -0.19984,-0.00068 -0.28434,0.01104 -0.56058,0.07864 -0.98408,0.56179 -0.98408,1.13169 0,0.56989 0.4235,1.05304 0.98391,1.1315 0.08449,0.01184 0.17928,0.01558 0.28434,0.01121 0.00012,-0.00001 0.00023,-0.00002 0.00034,-0.00002 0.00515,0 0.00931,0.00417 0.00931,0.00931 0,0 0,0.00001 0,0.00001l0 0.63009c0.00015,0.0114 0.00734,0.02119 0.01794,0.02476 0.54128,0.18801 0.92252,0.63876 0.98201,1.21331 0.00114,0.01023 0.00495,0.01534 0.01137,0.01534 0.00518,0 0.00828,-0.00512 0.00931,-0.01534 0.05949,-0.57455 0.44075,-1.0253 0.98236,-1.21342 0.01024,-0.00347 0.01744,-0.01325 0.01759,-0.02429l0 -0.63044c0,-0.00001 0,-0.00002 0,-0.00002 0,-0.00515 0.00417,-0.00931 0.00931,-0.00931 0.00011,0 0.00022,0.00001 0.00034,0.00001 0.10507,0.00438 0.19991,0.0007 0.28451,-0.01102 0.5604,-0.07864 0.98391,-0.56179 0.98391,-1.13168zm-12.9072 3.16415c0,-0.5735 -0.43212,-1.06564 -1.00201,-1.13305 -0.01365,-0.00171 -0.02361,-0.0132 -0.02344,-0.02672l-0.00001 -0.5637c0.00003,-0.00567 -0.00429,-0.01042 -0.00999,-0.01104 -0.36902,-0.04155 -0.71302,-0.23054 -0.94564,-0.51712 -0.17634,-0.21726 -0.28112,-0.46989 -0.31434,-0.75785 -0.0008,-0.0069 -0.00333,-0.01034 -0.00758,-0.01034 -0.00426,0 -0.00679,0.00345 -0.00758,0.01034 -0.03323,0.28796 -0.13795,0.54059 -0.31418,0.75785 -0.23261,0.28676 -0.57661,0.47575 -0.94563,0.5173 -0.0057,0.00061 -0.01002,0.00538 -0.00999,0.01102l0 0.56404c0.00018,0.01313 -0.00969,0.02459 -0.02295,0.02633 -0.5704,0.06747 -1.00234,0.55977 -1.00234,1.13312 0,0.57335 0.43211,1.06564 1.00218,1.13306 0.01353,0.00175 0.02338,0.01312 0.02328,0.02652l0 0.56389c-0.00002,0.00565 0.0043,0.0104 0.01001,0.01102 0.369,0.04157 0.713,0.23038 0.94561,0.51714 0.17635,0.21716 0.28113,0.46971 0.31435,0.75768 0.0008,0.00702 0.00333,0.01052 0.00758,0.01052 0.00426,0 0.00679,-0.00351 0.00758,-0.01052 0.03323,-0.28797 0.13795,-0.54053 0.31417,-0.75768 0.23262,-0.28676 0.57662,-0.47574 0.94564,-0.51729 0.00572,-0.00064 0.01003,-0.00541 0.01,-0.01105l-0.00001 -0.56402c-0.00018,-0.01315 0.00969,-0.02461 0.02296,-0.02635 0.57038,-0.06745 1.00233,-0.55975 1.00233,-1.1331zm10.89989 0.00018c0,0.57351 0.43212,1.06582 1.00236,1.13324 0.01359,0.00176 0.02346,0.01322 0.02328,0.02668l0 0.5639c-0.00004,0.00564 0.00429,0.0104 0.00999,0.01102 0.36901,0.04156 0.71319,0.23056 0.9458,0.51731 0.17635,0.21727 0.28113,0.46994 0.31435,0.75802 0.0008,0.0069 0.00333,0.01034 0.00758,0.01034 0.00426,0 0.00679,-0.00345 0.00758,-0.01034 0.03323,-0.28808 0.138,-0.54075 0.31435,-0.75802 0.23261,-0.28675 0.57679,-0.47575 0.9458,-0.5173 0.00571,-0.00063 0.01003,-0.0054 0.01,-0.01104l-0.00001 -0.56419c-0.00017,-0.01316 0.0097,-0.02462 0.02296,-0.02636 0.57056,-0.06744 1.00268,-0.55974 1.00268,-1.13326 0,-0.57351 -0.43212,-1.06599 -1.00236,-1.13341 -0.01352,-0.00177 -0.02337,-0.01315 -0.02328,-0.02654l0 -0.56387c0.00004,-0.00567 -0.00429,-0.01042 -0.00999,-0.01104 -0.36901,-0.04155 -0.71319,-0.23053 -0.9458,-0.5173 -0.17635,-0.21726 -0.28113,-0.46993 -0.31435,-0.75801 -0.0008,-0.00691 -0.00333,-0.01035 -0.00758,-0.01035 -0.00426,0 -0.00679,0.00345 -0.00758,0.01035 -0.03323,0.28808 -0.138,0.54075 -0.31435,0.75801 -0.23261,0.28677 -0.57679,0.47575 -0.9458,0.5173 -0.00571,0.00062 -0.01003,0.00538 -0.01,0.01103l0.00001 0.56421c0.00017,0.01319 -0.0098,0.02468 -0.02313,0.02633 -0.57039,0.0673 -1.00251,0.55977 -1.00251,1.13329zm-5.73118 0.00017c0,-0.57335 -0.43212,-1.06547 -1.00201,-1.13272 -0.01365,-0.0017 -0.02361,-0.01319 -0.02344,-0.02671l-0.00002 -0.5637c0.00004,-0.00567 -0.00428,-0.01042 -0.00998,-0.01104 -0.36885,-0.04155 -0.71303,-0.23053 -0.94564,-0.51712 -0.17623,-0.21715 -0.28101,-0.46971 -0.31434,-0.75768 -0.00069,-0.0069 -0.00322,-0.01034 -0.00759,-0.01034 -0.00414,0 -0.00661,0.00345 -0.00741,0.01034 -0.03322,0.28797 -0.13794,0.54053 -0.31417,0.75768 -0.23261,0.28676 -0.57661,0.47575 -0.94563,0.5173 -0.00563,0.00068 -0.00985,0.00543 -0.00982,0.01102l0 0.56405c0.00017,0.01318 -0.00979,0.02467 -0.02312,0.02632 -0.57023,0.06747 -1.00217,0.55977 -1.00217,1.13312 0,0.57335 0.43211,1.06547 1.00219,1.13272 0.01359,0.00176 0.02346,0.01322 0.02327,0.02669l0 0.56372c-0.00002,0.00564 0.0043,0.0104 0.01,0.01102 0.36901,0.04156 0.71301,0.23038 0.94563,0.51714 0.17623,0.21715 0.28101,0.46971 0.31434,0.75767 0.00081,0.00691 0.00334,0.01035 0.00758,0.01035 0.00414,0 0.00662,-0.00345 0.00741,-0.01035 0.03323,-0.28796 0.13801,-0.54052 0.31435,-0.75767 0.23244,-0.28676 0.57644,-0.47575 0.94546,-0.5173 0.00572,-0.00064 0.01003,-0.0054 0.01,-0.01105l-0.00018 -0.56401c-0.00016,-0.01321 0.0098,-0.02471 0.02313,-0.02636 0.57021,-0.06744 1.00216,-0.55974 1.00216,-1.13309zm5.16871 -0.00035c-0.00018,-0.57334 -0.43229,-1.06547 -1.00219,-1.13272 -0.01359,-0.00178 -0.02346,-0.01324 -0.02328,-0.02671l-0.00017 -0.56369c0.00003,-0.00567 -0.00429,-0.01043 -0.01,-0.01105 -0.36884,-0.04154 -0.71301,-0.23036 -0.94545,-0.51694 -0.17635,-0.21715 -0.28119,-0.46971 -0.31452,-0.75767 -0.00081,-0.0069 -0.00334,-0.01035 -0.00758,-0.01035 -0.00414,0 -0.00662,0.00345 -0.00741,0.01035 -0.03323,0.28796 -0.13795,0.54052 -0.31417,0.75767 -0.23244,0.28676 -0.57662,0.47574 -0.94546,0.5173 -0.00571,0.00061 -0.01002,0.00537 -0.01,0.01102l0.00018 0.56404c0.00016,0.01319 -0.0098,0.02468 -0.02313,0.02633 -0.57022,0.06747 -1.00217,0.55977 -1.00199,1.13312 0,0.57334 0.43211,1.06547 1.00201,1.13272 0.01365,0.00167 0.02362,0.01317 0.02345,0.02668l0 0.56372c0.00006,0.00558 0.00436,0.01025 0.01,0.01085 0.36901,0.04157 0.71301,0.23038 0.94563,0.51714 0.17634,0.21716 0.28113,0.46966 0.31434,0.7575 0.00081,0.00702 0.00334,0.01052 0.00758,0.01052 0.00426,0 0.00679,-0.00351 0.00759,-0.01052 0.03311,-0.28784 0.13784,-0.5404 0.31417,-0.75767 0.23243,-0.28676 0.57644,-0.47557 0.94528,-0.5173 0.00571,-0.00063 0.01003,-0.0054 0.01,-0.01104l0 -0.56402c-0.0001,-0.01309 0.00975,-0.02446 0.02295,-0.02618 0.57022,-0.06762 1.00217,-0.55975 1.00217,-1.1331z"/>
 </g>
</svg>
