<?xml version="1.0" encoding="UTF-8"?>
<!DOCTYPE svg PUBLIC "-//W3C//DTD SVG 1.1//EN" "http://www.w3.org/Graphics/SVG/1.1/DTD/svg11.dtd">
<!-- Creator: CorelDRAW -->
<svg xmlns="http://www.w3.org/2000/svg" xml:space="preserve" width="8.46667cm" height="7.9532cm" version="1.1" style="shape-rendering:geometricPrecision; text-rendering:geometricPrecision; image-rendering:optimizeQuality; fill-rule:evenodd; clip-rule:evenodd"
viewBox="0 0 8.45244 7.93984"
 xmlns:xlink="http://www.w3.org/1999/xlink"
 xmlns:xodm="http://www.corel.com/coreldraw/odm/2003">
 <defs>
  <style type="text/css">
   <![CDATA[
    .fil0 {fill:#285885;fill-rule:nonzero}
   ]]>
  </style>
 </defs>
 <g id="Layer_x0020_1">
  <metadata id="CorelCorpID_0Corel-Layer"/>
  <g id="_105553636613504">
   <path class="fil0" d="M2.41634 0.69684c0.17815,-0.0683 0.36164,-0.15255 0.51752,-0.23566 0.23076,-0.12292 0.4467,-0.27416 0.6259,-0.45739 0.00238,-0.00242 0.00562,-0.00377 0.00901,-0.00377 0.00602,0 0.01122,0.00426 0.01238,0.01017 0.00082,0.00415 0.00123,0.01046 0.00123,0.01894 -0.00391,1.78798 -0.00684,2.90727 -0.00877,3.35784 -0.00047,0.11076 -0.00996,0.22914 -0.0285,0.35516 -0.0355,0.241 -0.12273,0.4871 -0.26898,0.68156 -0.23609,0.31421 -0.61283,0.49482 -1.00287,0.51349 -0.01181,0.00059 -0.02186,0.00021 -0.03017,-0.00114 -0.00091,-0.00013 -0.0018,-0.00053 -0.00255,-0.00113 -0.00226,-0.00183 -0.00264,-0.00511 -0.00083,-0.00733 0.0006,-0.00075 0.0014,-0.00131 0.00231,-0.00162 0.20675,-0.0754 0.38455,-0.21419 0.50501,-0.40076 0.18788,-0.29107 0.23935,-0.63764 0.25215,-0.98044 0.00833,-0.22329 0.00403,-0.40863 0.00632,-0.67796 0.00245,-0.29657 0.00508,-0.88687 0.00789,-1.77089 0.00029,-0.0948 -0.0038,-0.1565 -0.01228,-0.18508 -0.04558,-0.15386 -0.19691,-0.20173 -0.34858,-0.20059 -0.10824,0.00076 -0.18616,0.00091 -0.23373,0.00044 -0.00387,-0.00012 -0.00696,-0.0033 -0.00696,-0.00719 0,-0.00293 0.00179,-0.00557 0.0045,-0.00666l0 0z"/>
   <path class="fil0" d="M1.25995 3.32086c0.00028,-0.00007 0.00057,-0.0001 0.00086,-0.0001 0.00228,0 0.00412,0.00184 0.00412,0.00412 0,0.00038 -0.00005,0.00077 -0.00016,0.00114 -0.01801,0.05968 -0.03662,0.13125 -0.05585,0.21472 -0.02256,0.09761 -0.0349,0.20258 -0.03701,0.31491 -0.00763,0.41328 0.21831,0.78967 0.56873,1.00481 0.13262,0.08148 0.27374,0.14095 0.42337,0.17842 0.12696,0.0318 0.25907,0.04775 0.39636,0.04786 0.50315,0.00053 0.99491,-0.23697 1.24074,-0.68945 0.11441,-0.21068 0.16921,-0.43617 0.19112,-0.67376 0.0048,-0.05149 0.00737,-0.13242 0.00772,-0.24276 0.00708,-2.19946 0.01096,-3.35293 0.01166,-3.46042 0.00006,-0.00561 0.00079,-0.00961 0.0022,-0.01201 0.00272,-0.0045 0.00759,-0.00726 0.01285,-0.00726 0.00408,0 0.008,0.00168 0.01082,0.00462 0.12064,0.12608 0.25951,0.23522 0.41829,0.31554 0.23101,0.11695 0.47746,0.13992 0.73723,0.17201 0.33527,0.04138 0.67131,0.1173 0.94134,0.32429 0.19016,0.14588 0.31939,0.35954 0.36734,0.59222 0.08662,0.42083 -0.07074,0.84796 -0.39934,1.12484 -0.22064,0.18592 -0.47653,0.29501 -0.76766,0.32728 -0.00064,0.00006 -0.00126,0.00056 -0.00184,0.00149 -0.00054,0.00082 -0.00082,0.00178 -0.00082,0.00276 0,0.00238 0.00166,0.00444 0.00397,0.00496 0.06523,0.01485 0.12768,0.03863 0.18735,0.07136 0.05594,0.03069 0.123,0.0683 0.17201,0.10837 0.08381,0.06833 0.15234,0.13753 0.20559,0.20761 0.0562,0.074 0.11589,0.16851 0.16438,0.26231 0.10152,0.19639 0.22663,0.45765 0.35779,0.68752 0.12198,0.21375 0.26021,0.40566 0.41469,0.57575 0.13344,0.14693 0.28922,0.27177 0.46737,0.37453 0.04682,0.027 0.10442,0.05278 0.15001,0.07303 0.28085,0.12496 0.57019,0.14582 0.86804,0.0626 0.01648,-0.00462 0.0567,-0.01792 0.12065,-0.03989 0.00084,-0.00029 0.00177,-0.00038 0.0027,-0.00027 0.00147,0.00018 0.00224,0.00027 0.0023,0.00027 0.00034,0.00016 0.00071,0.00038 0.00105,0.00064 0.00274,0.00207 0.00331,0.00594 0.00128,0.00865 -0.00027,0.00034 -0.00056,0.00066 -0.00089,0.00094 -0.20606,0.17827 -0.4768,0.27962 -0.74752,0.30811 -0.66702,0.07005 -1.31719,-0.29169 -1.71627,-0.80728 -0.12297,-0.15886 -0.23222,-0.33526 -0.32772,-0.52919 -0.02805,-0.0571 -0.05903,-0.12317 -0.09293,-0.19823 -0.13782,-0.30528 -0.22137,-0.50367 -0.36384,-0.72811 -0.02233,-0.03507 -0.05874,-0.08557 -0.10925,-0.1515 -0.05628,-0.07365 -0.14044,-0.16544 -0.22505,-0.2255 -0.04728,-0.03348 -0.07815,-0.05409 -0.09258,-0.06181 -0.00216,-0.00117 -0.00417,-0.00376 -0.00604,-0.0078 -0.00091,-0.00197 -0.00139,-0.00409 -0.00139,-0.00626 0,-0.00783 0.0061,-0.01432 0.01393,-0.01479 0.23063,-0.01462 0.43683,-0.08493 0.61861,-0.21094 0.12414,-0.08603 0.2257,-0.18954 0.30466,-0.31053 0.25609,-0.39216 0.23295,-0.90065 -0.06733,-1.25915 -0.03413,-0.04079 -0.07721,-0.08358 -0.12923,-0.12834 -0.16246,-0.14001 -0.3741,-0.224 -0.58688,-0.24478 -0.19796,-0.0193 -0.33999,0.10222 -0.34096,0.3029 -0.00496,1.01864 -0.00862,1.87559 -0.01095,2.57089 -0.00065,0.20469 -0.02896,0.40928 -0.08496,0.6138 -0.07987,0.29221 -0.22514,0.56058 -0.43099,0.78019 -0.20954,0.22339 -0.48422,0.3891 -0.78029,0.4936 -0.61808,0.2183 -1.38442,0.18025 -1.89117,-0.28187 -0.20717,-0.18893 -0.34017,-0.44012 -0.38006,-0.71181 -0.03928,-0.26714 -0.00333,-0.52077 0.08303,-0.77598 0.04284,-0.12649 0.09865,-0.24455 0.16745,-0.35419 0.0017,-0.00264 0.00414,-0.00432 0.00737,-0.00508z"/>
   <path class="fil0" d="M2.04996 3.6662c-0.00172,0.00184 -0.00413,0.00289 -0.00666,0.00289 -0.00244,0 -0.00477,-0.00099 -0.00649,-0.00272l-0.40838 -0.41732c-0.00152,-0.00155 -0.00238,-0.00362 -0.00238,-0.0058 0,-0.00204 0.00076,-0.004 0.00212,-0.00551l0.41328 -0.46896c0.00006,-0.00007 0.00015,-0.00016 0.00023,-0.00024 0.00165,-0.00165 0.00433,-0.00162 0.00601,0.00006 0.00008,0.00008 0.00016,0.00016 0.00023,0.00025 0.13241,0.16055 0.26856,0.32607 0.39805,0.46872 0.00106,0.00116 0.00165,0.00267 0.00165,0.00424 0,0.00161 -0.00062,0.00316 -0.00174,0.00434l-0.39592 0.42004z"/>
   <g>
    <path class="fil0" d="M5.51689 7.23024l0 0.00026c-0.00018,0.00262 -0.0024,0.00465 -0.00507,0.00464l-0.28424 -0.00009c-0.00067,0 -0.00144,-0.00019 -0.00213,-0.00059 -0.00168,-0.00101 -0.00282,-0.00204 -0.00339,-0.00308 -0.0001,-0.00019 -0.00019,-0.00039 -0.00027,-0.00059 -0.00092,-0.0024 0.00024,-0.00507 0.00259,-0.00597 0.00022,-0.00008 0.00043,-0.00015 0.00065,-0.0002 0.0144,-0.00297 0.02131,-0.00281 0.03149,-0.01051 0.01514,-0.0114 0.01777,-0.03069 0.00789,-0.05786 -0.01145,-0.03151 -0.02525,-0.06763 -0.04138,-0.10837 -0.00098,-0.00263 -0.00356,-0.00443 -0.00649,-0.00447l-0.22093 0c-0.00478,0.00001 -0.00909,0.00288 -0.01095,0.00728 -0.01772,0.0415 -0.03207,0.07768 -0.04306,0.10854 -0.01148,0.03227 -0.0092,0.06417 0.03375,0.06496 0.00265,0.00009 0.00474,0.00227 0.00474,0.00491 0,0 0,0 0,0l0 0.00237c0,0.0016 -0.0013,0.0029 -0.0029,0.0029l-0.1892 0c-0.00218,0 -0.00394,-0.00177 -0.00394,-0.00394l0 -0.0029c0,-0.00262 0.00212,-0.00473 0.00473,-0.00473 0.03777,-0.00053 0.06602,-0.02177 0.08478,-0.06373 0.09299,-0.20849 0.1833,-0.41236 0.27091,-0.6116 0.00096,-0.00215 0.00308,-0.00352 0.00543,-0.00352 0.00235,0 0.00447,0.00138 0.00544,0.00351 0.07762,0.17395 0.17046,0.38223 0.27853,0.62485 0.01374,0.03092 0.03968,0.04831 0.07785,0.05216 0.00297,0.0003 0.00522,0.0028 0.00518,0.00575l-0.00001 0.00004zm-0.40671 -0.46133c-0.00053,-0.00124 -0.00173,-0.00204 -0.00306,-0.00204 -0.00135,0 -0.00255,0.0008 -0.00307,0.00204l-0.09802 0.23031c-0.00018,0.00041 -0.00027,0.00086 -0.00027,0.00131 0,0.00182 0.00145,0.00329 0.00325,0.00333l0.19051 0.00001c0.00183,-0.00003 0.0033,-0.00151 0.0033,-0.00334 0,-0.00042 -0.00008,-0.00083 -0.00024,-0.00122l-0.0924 -0.2304z"/>
    <path class="fil0" d="M7.28656 7.2298l0 0.00026c-0.00018,0.00262 -0.00241,0.00465 -0.00508,0.00464l-0.28388 0.00053c-0.00069,0 -0.00145,-0.0002 -0.00214,-0.00059 -0.00168,-0.00101 -0.00281,-0.00204 -0.00338,-0.00309 -0.00041,-0.0007 -0.00062,-0.00149 -0.00062,-0.0023 0,-0.00215 0.0015,-0.004 0.00359,-0.00445 0.0143,-0.00298 0.02122,-0.0029 0.03139,-0.01061 0.01508,-0.01139 0.01768,-0.03065 0.00781,-0.05777 -0.01151,-0.03145 -0.02537,-0.06751 -0.04156,-0.10819 -0.00097,-0.00262 -0.00355,-0.00442 -0.00647,-0.00447l-0.22069 0.00044c-0.00462,-0.00007 -0.00897,0.00275 -0.0109,0.00715 -0.01769,0.04159 -0.03197,0.07781 -0.04284,0.10867 -0.0114,0.03227 -0.00912,0.06409 0.03384,0.06479 0.00264,0.00009 0.00473,0.00226 0.00473,0.0049 0,0 0,0 0,0l0 0.00238c0,0.0016 -0.0013,0.0029 -0.0029,0.0029l-0.18902 0.00035c-0.00218,0 -0.00394,-0.00177 -0.00394,-0.00395l0 -0.00289c0,-0.00262 0.00213,-0.00474 0.00473,-0.00474 0.03771,-0.00058 0.0659,-0.02185 0.08461,-0.06382 0.09246,-0.20842 0.18227,-0.41223 0.26942,-0.61142 0.00096,-0.00214 0.00308,-0.00351 0.00543,-0.00351 0.00235,0 0.00448,0.00138 0.00544,0.00351 0.07785,0.17359 0.17099,0.38146 0.27941,0.62361 0.0138,0.03086 0.03974,0.04819 0.07785,0.05199 0.00294,0.00026 0.00517,0.00273 0.00517,0.00567 0,0 0,0.00001 0,0.00002l0 0.00001zm-0.50683 -0.23566c-0.0003,0.00072 -0.00045,0.0015 -0.00045,0.00228 0,0.00326 0.00263,0.00592 0.00589,0.00596l0.18078 0.00158c0.00002,0 0.00004,0 0.00007,0 0.00328,0 0.00596,-0.00268 0.00596,-0.00596 0,-0.00075 -0.00015,-0.0015 -0.00042,-0.0022l-0.08846 -0.22216c-0.00091,-0.00228 -0.0031,-0.00376 -0.00554,-0.00376 -0.00242,0 -0.00458,0.00145 -0.00551,0.00367l-0.09231 0.22059z"/>
    <path class="fil0" d="M2.11558 6.5613c0.1387,0.00009 0.21137,0.00869 0.29843,-0.01516 0.00043,-0.00012 0.00088,-0.00018 0.00132,-0.00018 0.00278,0 0.00504,0.00223 0.00509,0.005l0 0.14922c0,0.00286 -0.00232,0.00517 -0.00518,0.00517l-0.00315 0c-0.0016,0.00002 -0.003,-0.00121 -0.00323,-0.00287 -0.00658,-0.05903 -0.02473,-0.09874 -0.09154,-0.10059 -0.04916,-0.00135 -0.09226,-0.00135 -0.12932,0 -0.00262,0.00013 -0.00459,0.0023 -0.00455,0.00489 0.00041,0.22918 0.00029,0.40252 -0.00035,0.52 -0.00027,0.05401 0.00464,0.0974 0.06628,0.0974 0.00314,0.00001 0.00568,0.00257 0.00568,0.0057 0,0.00208 -0.00114,0.004 -0.00297,0.005 -0.00123,0.00064 -0.00347,0.00091 -0.00675,0.00079 -0.01175,-0.00059 -0.05521,-0.00091 -0.13037,-0.00097 -0.07516,-0.00005 -0.11859,0.00018 -0.13028,0.00071 -0.00327,0.00011 -0.00552,-0.00015 -0.00675,-0.00079 -0.00183,-0.00101 -0.00296,-0.00293 -0.00296,-0.005 0,-0.00314 0.00254,-0.00569 0.00568,-0.0057 0.06163,0.00018 0.06662,-0.04322 0.06645,-0.09723 -0.00047,-0.11748 -0.00029,-0.29083 0.00053,-0.52006 0.00004,-0.00254 -0.00195,-0.00469 -0.00449,-0.00482 -0.03711,-0.00141 -0.08023,-0.0015 -0.12939,-0.00027 -0.0668,0.00176 -0.08504,0.04138 -0.09171,0.10038 -0.00023,0.00169 -0.00163,0.00292 -0.00326,0.0029l-0.00313 0c-0.00285,0 -0.00516,-0.00232 -0.00516,-0.00517l0.00025 -0.14922c0.00006,-0.00278 0.00233,-0.005 0.00509,-0.005 0.00045,0 0.00089,0.00006 0.00132,0.00018 0.08705,0.02403 0.15973,0.01561 0.29844,0.01569z"/>
    <path class="fil0" d="M1.03046 6.56218c0.19148,-0.00141 0.30705,-0.00167 0.34675,-0.00079 0.02501,0.00059 0.0533,0.00646 0.08487,0.01762 0.09862,0.03498 0.13879,0.12186 0.11529,0.22663 -0.02139,0.09548 -0.11433,0.14291 -0.20708,0.13984 -0.03349,-0.00112 -0.06578,-0.01251 -0.09688,-0.03419 -0.00151,-0.00108 -0.00241,-0.00281 -0.00241,-0.00465 0,-0.00315 0.00256,-0.0057 0.0057,-0.0057 0.00007,0 0.00014,0 0.00021,0 0.03841,0.00176 0.07061,-0.00637 0.09662,-0.02437 0.08425,-0.05856 0.08635,-0.23312 -0.02113,-0.26907 -0.02822,-0.00938 -0.07408,-0.00411 -0.11072,-0.00499 -0.00006,0 -0.00011,-0.00001 -0.00017,-0.00001 -0.00383,0 -0.00693,0.0031 -0.00693,0.00693 0,0 0,0 0,0 -0.00012,0.20603 -0.00024,0.38632 -0.00036,0.54085 -0.00008,0.04411 0.01719,0.07093 0.0662,0.07514 0.00252,0.00018 0.00447,0.00228 0.00447,0.0048 0,0 0,0.00001 0,0.00001l0 0.00036c-0.00018,0.00213 -0.00197,0.00376 -0.0041,0.00376 0,0 -0.00001,0 -0.00002,0l-0.26872 0.00035c-0.00261,0 -0.00473,-0.00212 -0.00473,-0.00473l0 -0.00017c0.00022,-0.00296 0.00257,-0.00527 0.00544,-0.00535 0.0419,-0.00205 0.06314,-0.02314 0.06373,-0.0633 0.00187,-0.13297 0.00178,-0.30822 -0.00026,-0.52577 -0.00036,-0.03375 -0.01421,-0.05559 -0.04542,-0.06111 -0.00952,-0.0017 -0.01662,-0.00318 -0.0213,-0.00447 -0.00177,-0.00038 -0.00304,-0.00196 -0.00304,-0.00377 0,-0.00214 0.00173,-0.00385 0.00385,-0.00385 0.00005,0 0.00011,0 0.00016,0l0 0z"/>
    <path class="fil0" d="M3.6494 6.56139c0.00007,0 0.00014,-0.00001 0.00021,-0.00001 0.00242,0 0.00438,0.00197 0.00438,0.00438 0,0.0021 -0.00149,0.0039 -0.00353,0.0043 -0.01263,0.00298 -0.03507,0.00597 -0.04586,0.0171 -0.0135,0.01386 -0.02043,0.03133 -0.02078,0.05242 -0.00117,0.07505 -0.00105,0.25408 0.00035,0.53709 0.00079,0.15413 -0.10398,0.23645 -0.24837,0.24092 -0.00232,-0.00002 -0.00417,-0.0019 -0.00417,-0.00421 0,-0.0016 0.0009,-0.00305 0.00234,-0.00377 0.09345,-0.04278 0.11151,-0.13615 0.11178,-0.23154 0.0004,-0.15518 0.00037,-0.33339 -0.00009,-0.53462 -0.00018,-0.05076 -0.01947,-0.06575 -0.06734,-0.07154 -0.00208,-0.00025 -0.00367,-0.00201 -0.00367,-0.00409l-0.00001 -0.00301c0.00001,-0.00189 0.00154,-0.00341 0.00342,-0.00341l0.27134 0z"/>
    <path class="fil0" d="M4.44625 6.57138c-0.00231,-0.00038 -0.00396,-0.00237 -0.00394,-0.00469l0 -0.00268c0,-0.00145 0.00118,-0.00263 0.00263,-0.00263 0.10387,-0.00041 0.16538,-0.00038 0.18455,0.00009 0.00153,0 0.00276,0.00079 0.00368,0.00237 0.00009,0.00014 0.00017,0.00027 0.00024,0.00042 0.00113,0.00231 0.00006,0.00513 -0.00238,0.00633 -0.00014,0.00006 -0.00027,0.00012 -0.00041,0.00018 -0.00011,0.00006 -0.00689,0.00137 -0.02034,0.00394 -0.02884,0.00544 -0.03989,0.02955 -0.03989,0.0583 -0.00029,0.20287 -0.00064,0.32561 -0.00105,0.36822 -0.00228,0.24723 -0.25758,0.28309 -0.43932,0.21751 -0.09837,-0.03551 -0.14632,-0.12546 -0.14659,-0.22848 -0.00011,-0.06073 0,-0.17695 0.00035,-0.34866 0.00006,-0.0442 -0.02072,-0.0674 -0.06234,-0.06961 -0.0027,-0.00015 -0.00481,-0.00238 -0.00481,-0.00508 0,-0.00001 0,-0.00001 0,-0.00001l-0.00001 -0.00272c0.00001,-0.0017 0.00138,-0.00307 0.00307,-0.00307l0.26135 0.00001c0.00169,-0.00001 0.00306,0.00137 0.00306,0.00306l0 0.00264c-0.00003,0.00262 -0.0021,0.00471 -0.0047,0.00481 -0.03906,0.00229 -0.05856,0.02289 -0.05851,0.06182 0.00041,0.15254 0.00024,0.25883 -0.00052,0.31886 -0.00114,0.09644 0.01841,0.20699 0.12387,0.241 0.04764,0.01531 0.09346,0.01546 0.13748,0.00044 0.09336,-0.032 0.12484,-0.11564 0.12432,-0.20997 -0.00042,-0.07406 -0.00085,-0.19674 -0.00132,-0.36805 0,-0.01833 -0.0171,-0.03797 -0.03753,-0.04112 -0.00999,-0.00158 -0.01698,-0.00266 -0.02095,-0.00324z"/>
    <path class="fil0" d="M5.72775 6.56122c0.12581,0.00394 0.26091,-0.00377 0.35726,0.00228 0.08987,0.00561 0.17272,0.05015 0.18999,0.14211 0.01929,0.10276 -0.03883,0.19349 -0.14106,0.21743 -0.00165,0.00035 -0.00284,0.00182 -0.00284,0.0035 0,0.00131 0.00072,0.00253 0.00187,0.00315 0.03901,0.02218 0.06611,0.04945 0.09083,0.08978 0.01415,0.02314 0.04074,0.06335 0.07979,0.12064 0.02793,0.04085 0.06458,0.06978 0.10994,0.08679 0.00152,0.00048 0.00256,0.0019 0.00256,0.0035 0,0.00204 -0.00165,0.00368 -0.00367,0.00368 -0.00004,0 -0.00008,0 -0.00011,0 -0.10065,0.00202 -0.19639,0.01254 -0.27266,-0.06838 -0.01619,-0.01718 -0.03384,-0.04769 -0.05296,-0.09153 -0.01409,-0.03251 -0.02936,-0.06459 -0.04585,-0.09627 -0.0177,-0.03428 -0.02604,-0.05724 -0.06128,-0.06952 -0.00124,-0.00042 -0.00229,-0.00123 -0.00301,-0.0023 -0.00184,-0.00273 -0.00109,-0.00646 0.00169,-0.00833 0.00107,-0.00072 0.00234,-0.00109 0.00361,-0.00105 0.03883,0.00168 0.09397,-0.01174 0.11589,-0.0476 0.04506,-0.07373 0.04998,-0.19068 -0.03691,-0.23662 -0.03078,-0.01631 -0.08153,-0.01105 -0.11941,-0.00938 -0.00475,0.00019 -0.00851,0.00409 -0.00851,0.00885 0,0.00001 0,0.00001 0,0.00001 0,0.23192 0.00014,0.41653 0.00044,0.55383 0.00012,0.03688 0.0215,0.05629 0.06417,0.05821 0.00299,0.00014 0.00535,0.00261 0.00535,0.0056 0,0 0,0 0,0.00001l0 0.00237c0,0.0016 -0.0013,0.0029 -0.0029,0.0029l-0.27239 0c-0.00194,0 -0.00351,-0.00158 -0.00351,-0.00351l0 -0.00289c0,0 0,0 0,0 0,-0.00273 0.00219,-0.00495 0.00491,-0.005 0.04285,-0.00082 0.06455,-0.02159 0.06514,-0.06234 0.00111,-0.08112 0.00132,-0.25095 0.00062,-0.50945 -0.00006,-0.02835 -0.00357,-0.04714 -0.01052,-0.05638 -0.01158,-0.01531 -0.02946,-0.02292 -0.05366,-0.0228 -0.00003,0 -0.00006,0 -0.00009,0 -0.00324,0 -0.00587,-0.00263 -0.00587,-0.00587 0,0 0,0 0,0l0 -0.00246c0,0.00003 0,0.00001 0,0 0,-0.00165 0.00138,-0.00298 0.00306,-0.00298 0.00002,0 0.00003,0 0.00005,0l0.00004 0.00001z"/>
    <circle class="fil0" cx="2.66712" cy="7.17448" r="0.07005"/>
   </g>
   <path class="fil0" d="M4.15688 5.60489c0.00023,0 0.00082,0.00014 0.00175,0.00044 0.00076,0.00029 0.00123,0.00052 0.00141,0.0007 0.02863,0.0325 0.05888,0.06707 0.09074,0.10372 0.00508,0.00577 0.01216,0.00892 0.01956,0.00885l0.14035 0.00001c0.00272,0 0.00491,0.0022 0.00491,0.0049l0 0.14397c0.00004,0.00376 0.00165,0.00721 0.00441,0.00956l0.1093 0.09634c0.00091,0.0008 0.00143,0.00195 0.00143,0.00315 0,0.00121 -0.00052,0.00237 -0.00143,0.00315l-0.10906 0.0946c-0.00373,0.00317 -0.00599,0.00799 -0.00605,0.01306l0 0.14467c0,0.00262 -0.00209,0.00473 -0.00465,0.00473l-0.14036 0c-0.0059,0.00008 -0.01123,0.00256 -0.01491,0.00679l-0.0952 0.10666c-0.0007,0.00075 -0.00133,0.00124 -0.00167,0.00132 -0.00006,0.00006 -0.00046,0.00009 -0.00123,0.00009 -0.00076,0 -0.00117,-0.00003 -0.00123,-0.00009 -0.00032,-0.00008 -0.00095,-0.00057 -0.00166,-0.00132l-0.09522 -0.10704c-0.00349,-0.00406 -0.00879,-0.00655 -0.0144,-0.00667l-0.1406 -0.00026c-0.00008,0 -0.00008,0 -0.00008,0 -0.00257,-0.00005 -0.0046,-0.0022 -0.00456,-0.00481l0.00026 -0.14441c-0.00007,-0.00528 -0.00234,-0.01009 -0.00621,-0.01339l-0.10874 -0.09462c-0.0009,-0.00081 -0.00142,-0.00196 -0.00142,-0.00316 0,-0.00121 0.00052,-0.00236 0.00143,-0.00315l0.10968 -0.09627c0.00266,-0.00228 0.00426,-0.00571 0.00429,-0.00933l0.00026 -0.14409c0.00001,-0.00272 0.00221,-0.00491 0.00492,-0.00491l0.14061 0.00027c0.00717,0.00008 0.01424,-0.00306 0.01915,-0.00861 0.03207,-0.0367 0.06245,-0.07126 0.09115,-0.10371 0.00018,-0.00018 0.00065,-0.00041 0.00141,-0.0007 0.00093,-0.0003 0.00149,-0.00044 0.00167,-0.00044zm-0.20498 0.1671c-0.00087,0.00088 -0.00132,0.00158 -0.00132,0.00211 -0.00029,0.03296 0.00024,0.06297 0.00159,0.09004 0.00035,0.00754 0.00376,0.01438 0.00517,0.02244 0.00033,0.00191 -0.00037,0.00386 -0.00184,0.00517l-0.09452 0.08189c-0.00093,0.00081 -0.00147,0.002 -0.00147,0.00323 0,0.00125 0.00054,0.00244 0.00148,0.00324l0.09012 0.07944c0.00046,0.0004 0.00072,0.00098 0.00071,0.00159l0 0.11782c0,0 0,0.00001 0,0.00001 0,0.00287 0.00223,0.00524 0.00508,0.00542 0.04033,0.00288 0.07692,0.0003 0.10977,-0.00771 0.00033,-0.00009 0.00066,-0.00013 0.001,-0.00013 0.0012,0 0.00235,0.00053 0.00312,0.00144l0.08206 0.0946c0.00008,0.0001 0.00015,0.00017 0.00022,0.00024 0.00165,0.00165 0.00428,0.00168 0.00589,0.00006 0.00008,-0.00007 0.00015,-0.00015 0.00022,-0.00024l0.08388 -0.09527c0.00157,-0.00178 0.004,-0.00259 0.00639,-0.00211 0.00921,0.00193 0.01614,0.00693 0.02701,0.00763 0.02519,0.00164 0.05351,0.00194 0.08496,0.00088 0.00017,0 0.00141,-0.00097 0.00149,-0.00114 0.00009,-0.00009 0.00114,-0.00123 0.00114,-0.00149 0.001,-0.03145 0.00068,-0.05977 -0.00096,-0.08496 -0.00071,-0.01087 -0.0057,-0.01771 -0.00763,-0.02691 -0.00052,-0.00226 0.00021,-0.00471 0.00194,-0.00633l0.09538 -0.08406c0.00011,-0.00011 0.00019,-0.00018 0.00027,-0.00026 0.00158,-0.00164 0.00151,-0.00427 -0.00017,-0.00589 -0.00007,-0.00007 -0.00015,-0.00013 -0.00022,-0.0002l-0.09466 -0.08203c-0.0009,-0.00078 -0.00142,-0.00192 -0.00142,-0.00311 0,-0.00031 0.00004,-0.00062 0.00011,-0.00092 0.00801,-0.0329 0.01054,-0.06951 0.00763,-0.10985 -0.00019,-0.00287 -0.00257,-0.00509 -0.00543,-0.00509 0,0 0,0 -0.00001,0l-0.11783 0.00018c-0.00063,-0.00001 -0.00121,-0.00027 -0.00159,-0.00073l-0.07951 -0.0901c-0.00081,-0.00095 -0.002,-0.00149 -0.00324,-0.00149 -0.00124,0 -0.00243,0.00054 -0.00324,0.00148l-0.0818 0.09461c-0.00131,0.00147 -0.00326,0.00217 -0.00517,0.00184 -0.00807,-0.00141 -0.0149,-0.00482 -0.02244,-0.00517 -0.02706,-0.00129 -0.05707,-0.00179 -0.09004,-0.00149 -0.00053,0 -0.00123,0.00043 -0.00211,0.00131z"/>
   <path class="fil0" d="M4.15679 5.81635c0.00309,0 0.00526,0.00146 0.00649,0.00438 0.00748,0.01765 0.01715,0.03744 0.02901,0.05936 0.00174,0.00313 0.00503,0.00508 0.00862,0.00508 0.00126,0 0.00251,-0.00024 0.00367,-0.00071l0.06057 -0.02428c0.00058,-0.00024 0.0012,-0.00037 0.00183,-0.00037 0.00261,0 0.00473,0.00213 0.00473,0.00474 0,0.00067 -0.00014,0.00133 -0.00042,0.00194l-0.02657 0.06242c-0.00229,0.00541 0.00026,0.01168 0.0057,0.01403l0.06049 0.02578c0.00222,0.00093 0.00366,0.00309 0.00366,0.00549 0,0.00216 -0.00117,0.00414 -0.00304,0.0052l-0.06181 0.03577c-0.00379,0.00221 -0.00537,0.00684 -0.00375,0.01091l0.02435 0.06072c0.00022,0.00053 0.00034,0.0011 0.00034,0.00167 0,0.00243 -0.00197,0.00439 -0.00438,0.00439 -0.0006,0 -0.00119,-0.00013 -0.00174,-0.00036l-0.06426 -0.02735c-0.00103,-0.00043 -0.00213,-0.00065 -0.00324,-0.00065 -0.00326,0 -0.00625,0.0019 -0.00763,0.00485 -0.00911,0.0193 -0.01862,0.04025 -0.02849,0.06286 -0.00082,0.00188 -0.0024,0.00279 -0.00474,0.00273 -0.00234,0 -0.00388,-0.00091 -0.00464,-0.00273 -0.00982,-0.02267 -0.01926,-0.04366 -0.02832,-0.06294 -0.00136,-0.003 -0.00435,-0.00494 -0.00766,-0.00494 -0.0011,0 -0.00219,0.00022 -0.0032,0.00064l-0.06436 0.02718c-0.00056,0.00025 -0.00116,0.00038 -0.00178,0.00038 -0.00242,0 -0.00438,-0.00197 -0.00438,-0.00438 0,-0.00062 0.00013,-0.00123 0.00038,-0.00179l0.02463 -0.06067c0.00161,-0.00406 0.00001,-0.0087 -0.00375,-0.01086l-0.06165 -0.03595c-0.00188,-0.00106 -0.00303,-0.00304 -0.00303,-0.0052 0,-0.00241 0.00144,-0.00457 0.00365,-0.0055l0.06058 -0.0256c0.00538,-0.00219 0.00806,-0.00843 0.00585,-0.0139l-0.02646 -0.06264c-0.00025,-0.0006 -0.00038,-0.00124 -0.00038,-0.00188 0,-0.00262 0.00212,-0.00474 0.00473,-0.00474 0.00065,0 0.00129,0.00014 0.00188,0.00039l0.06049 0.02447c0.00118,0.00048 0.00245,0.00072 0.00371,0.00072 0.00355,0 0.00683,-0.00192 0.00857,-0.00501 0.01192,-0.02192 0.02165,-0.04168 0.02919,-0.05927 0.00123,-0.00293 0.00342,-0.00438 0.00658,-0.00438z"/>
   <path class="fil0" d="M3.71922 5.97538c0,0.00123 -0.00041,0.00217 -0.00123,0.00282 -0.03174,0.02332 -0.05874,0.05052 -0.081,0.08161 -0.00122,0.00173 -0.00319,0.00276 -0.00531,0.00276 -0.00211,0 -0.00408,-0.00103 -0.0053,-0.00276 -0.02391,-0.03389 -0.05281,-0.0607 -0.08671,-0.08039 -0.0007,-0.0004 -0.00119,-0.00102 -0.00149,-0.00184 -0.00023,-0.00076 -0.00035,-0.00158 -0.00035,-0.00246 0,-0.00082 0.00012,-0.00161 0.00035,-0.00237 0.00029,-0.00082 0.00079,-0.00143 0.00149,-0.00184 0.03396,-0.01965 0.06292,-0.04638 0.08688,-0.08022 0.00123,-0.0017 0.00319,-0.00272 0.00528,-0.00272 0.00213,0 0.00412,0.00105 0.00533,0.00281 0.02221,0.03115 0.04916,0.05842 0.08083,0.08179 0.00082,0.00065 0.00123,0.00159 0.00123,0.00281z"/>
   <path class="fil0" d="M4.68975 5.88965c0.00147,0 0.00226,0.00008 0.00237,0.00026 0.02514,0.03168 0.05392,0.05938 0.08636,0.08311 0.00082,0.00059 0.00123,0.00158 0.00123,0.00298 0,0.0014 -0.00044,0.0024 -0.00132,0.00298 -0.03256,0.02355 -0.06146,0.05107 -0.0867,0.08258 -0.00018,0.00018 -0.001,0.00026 -0.00246,0.00026 -0.00141,0 -0.0022,-0.00008 -0.00237,-0.00026 -0.02508,-0.03168 -0.05384,-0.05938 -0.08627,-0.08311 -0.00082,-0.00065 -0.00123,-0.00164 -0.00123,-0.00298 0,-0.0014 0.00041,-0.0024 0.00123,-0.00297 0.03262,-0.02356 0.06155,-0.05108 0.08679,-0.08259 0.00018,-0.00018 0.00097,-0.00026 0.00237,-0.00026z"/>
   <path class="fil0" d="M3.47312 5.9745c0,0.01649 -0.01806,0.03507 -0.0313,0.04112 -0.00311,0.00139 -0.00657,0.00128 -0.00948,-0.00023l-0.0248 -0.01266c-0.0029,-0.0015 -0.00627,-0.00243 -0.00973,-0.00262 -0.0232,-0.00112 -0.04117,-0.00168 -0.05391,-0.00168 -0.36811,0 -1.08983,-0.00023 -2.16516,-0.0007 -0.03866,0 -0.05795,0.0213 -0.08092,0.04497 -0.00007,0.00008 -0.00019,0.0002 -0.00031,0.00031 -0.00364,0.00339 -0.00938,0.00317 -0.01282,-0.00051 -0.00012,-0.00013 -0.00023,-0.00025 -0.00034,-0.00038 -0.02504,-0.03019 -0.05757,-0.05042 -0.09761,-0.0607 -0.00293,-0.00077 -0.00439,-0.00307 -0.00439,-0.00694 0,-0.00391 0.00147,-0.00625 0.00439,-0.00701 0.04003,-0.01028 0.07256,-0.03051 0.09758,-0.06067 0.00014,-0.00017 0.00025,-0.0003 0.00037,-0.00042 0.00343,-0.00368 0.00917,-0.00391 0.01282,-0.00051 0.00012,0.00011 0.00024,0.00023 0.00035,0.00034 0.02293,0.02365 0.04222,0.04494 0.08088,0.04494 1.07533,-0.00046 1.79705,-0.0007 2.16516,-0.0007 0.01274,0 0.03065,-0.00055 0.05374,-0.00167 0.00363,-0.00021 0.00701,-0.00113 0.01006,-0.00271l0.02474 -0.01263c0.00282,-0.00147 0.00627,-0.00157 0.00928,-0.00023 0.01334,0.00619 0.0314,0.02478 0.0314,0.04125z"/>
   <path class="fil0" d="M7.36585 5.97486c0,0.00315 -0.00103,0.00508 -0.00306,0.00578 -0.03869,0.01257 -0.07008,0.03314 -0.09416,0.06173 -0.00014,0.00016 -0.00025,0.00028 -0.00036,0.0004 -0.00373,0.004 -0.00997,0.00424 -0.01394,0.00055 -0.00013,-0.00012 -0.00026,-0.00025 -0.00038,-0.00038 -0.01372,-0.014 -0.02622,-0.02506 -0.03749,-0.03318 -0.01727,-0.01245 -0.03621,-0.01105 -0.0576,-0.01105 -0.04512,-0.00005 -0.76065,-0.00011 -2.14657,-0.00017 -0.03723,0 -0.06543,0.00032 -0.0846,0.00096 -0.0054,0.00027 -0.01021,0.0019 -0.01429,0.00471 -0.01,0.00651 -0.01892,0.01066 -0.02674,0.01248 -0.0031,0.00071 -0.0064,0.00004 -0.00901,-0.00184 -0.01679,-0.01199 -0.02518,-0.02547 -0.02518,-0.04042 0,-0.0149 0.00839,-0.02838 0.02516,-0.04042 0.00264,-0.00189 0.00593,-0.00256 0.00905,-0.00184 0.00782,0.00181 0.01684,0.00608 0.02706,0.0128 0.00373,0.00258 0.00855,0.0042 0.01353,0.00444 0.01945,0.00067 0.04779,0.00099 0.08502,0.00099 1.38592,0.00042 2.10144,0.00059 2.14657,0.00053 0.02139,0 0.04033,0.00141 0.0576,-0.01104 0.01127,-0.00813 0.02378,-0.0192 0.03752,-0.03322 0.00009,-0.0001 0.00022,-0.00023 0.00035,-0.00035 0.00396,-0.00369 0.0102,-0.00345 0.01394,0.00055 0.00011,0.00012 0.00022,0.00024 0.00033,0.00037 0.0241,0.0286 0.05553,0.04923 0.09427,0.06185 0.00199,0.00065 0.00298,0.00258 0.00298,0.00579z"/>
   <g>
    <g>
     <path class="fil0" d="M7.73233 6.60408c0.07128,0.00211 0.13221,0.05777 0.12616,0.13168 0,0.00004 -0.00001,0.00012 -0.00002,0.00021 -0.00022,0.00439 0.00307,0.00815 0.00738,0.00838 0.00011,0 0.00021,0 0.00031,0.00001 0.01342,0.00012 0.02641,0.00409 0.03897,0.01192 0.00207,0.0013 0.00331,0.00357 0.00331,0.00601 0,0.00277 -0.0016,0.00527 -0.0041,0.00644 -0.06617,0.03081 -0.11587,0.08145 -0.14913,0.15194 -0.0519,0.10985 0.02437,0.20269 0.10599,0.27616 0.00136,0.00116 0.00264,0.00203 0.00398,0.00271l0.03197 0.01747c0.00349,0.00187 0.00567,0.00552 0.00567,0.00948 0,0.00386 -0.00206,0.00744 -0.00541,0.00935l-0.03104 0.01789c-0.00261,0.00149 -0.0044,0.00409 -0.00491,0.0071 -0.01169,0.07102 -0.05421,0.11064 -0.12756,0.11889 -0.00119,0.00011 -0.00241,-0.00009 -0.0035,-0.00061 -0.00333,-0.00155 -0.0048,-0.00548 -0.00326,-0.00878 0.00052,-0.00111 0.00134,-0.00205 0.00238,-0.00272 0.06033,-0.0398 0.0633,-0.13221 0.02797,-0.18543 -0.02361,-0.03559 -0.03741,-0.05754 -0.04138,-0.06584 -0.0432,-0.08949 -0.04229,-0.17488 0.00272,-0.25618 0.01525,-0.0277 0.04585,-0.06435 0.05559,-0.09644 0.01812,-0.05968 0.00303,-0.11014 -0.04523,-0.15142 -0.00109,-0.00089 -0.00172,-0.00221 -0.00172,-0.0036 0,-0.00257 0.00209,-0.00464 0.00465,-0.00464 0.00007,0 0.00014,0 0.00022,0.00001l0 0z"/>
     <path class="fil0" d="M7.79071 6.96529c0.01947,-0.0215 0.04247,-0.04129 0.069,-0.05935 0.04954,-0.03366 0.07627,-0.05742 0.08206,-0.10942 0.00193,-0.01674 0.0249,-0.02086 0.03875,-0.01447 0.02551,0.01166 0.04646,0.06146 0.01762,0.07988 -0.00223,0.00145 -0.00488,0.00235 -0.00764,0.00253l-0.01964 0.00142c-0.00309,0.00021 -0.00594,0.00182 -0.00771,0.00437l-0.0164 0.02342c-0.00044,0.00057 -0.00083,0.00103 -0.00124,0.00144 -0.04476,0.04194 -0.09473,0.06823 -0.14991,0.07887 -0.00032,0.00006 -0.00066,0.00009 -0.00099,0.00009 -0.00291,0 -0.00526,-0.00236 -0.00526,-0.00526 0,-0.0013 0.00048,-0.00255 0.00134,-0.00351l0 0z"/>
     <path class="fil0" d="M8.18848 6.99177c0,0.00046 -0.00029,0.00128 -0.00088,0.00245 -0.02043,0.03972 -0.03577,0.06935 -0.074,0.08697 -0.05768,0.02657 -0.09284,-0.00833 -0.13782,-0.04269 -0.0277,-0.02122 -0.0614,-0.03455 -0.10109,-0.03998 -0.00303,-0.00041 -0.00455,-0.00196 -0.00455,-0.00465 -0.00006,-0.00275 0.00146,-0.00432 0.00455,-0.00473 0.03957,-0.00596 0.07307,-0.01973 0.10048,-0.04129 0.04454,-0.03498 0.07926,-0.07031 0.13729,-0.04454 0.03841,0.01709 0.05419,0.04655 0.07505,0.08601 0.00064,0.00117 0.00096,0.00199 0.00096,0.00246zm-0.21164 -0.00044c0,0.00128 0.00045,0.00234 0.00132,0.00315 0.00007,0.0001 0.00016,0.00019 0.00027,0.00026 0.01554,0.00784 0.03536,0.02107 0.05944,0.03972 0.04041,0.03138 0.07443,-0.00246 0.08732,-0.03989 0.00017,-0.00053 0.00026,-0.00121 0.00026,-0.00202 0,-0.00088 -0.00009,-0.00158 -0.00026,-0.00211 -0.01228,-0.03762 -0.04576,-0.07198 -0.08662,-0.04129 -0.02437,0.01829 -0.0444,0.03124 -0.06006,0.03883 -0.00014,0.00004 -0.00026,0.0001 -0.00036,0.00018 -0.00087,0.00082 -0.00131,0.00187 -0.00131,0.00315z"/>
     <circle class="fil0" cx="8.27361" cy="6.99151" r="0.03937"/>
     <path class="fil0" d="M7.79316 7.01202c0.07119,0.00947 0.12003,0.05129 0.16886,0.09794 0.00204,0.00197 0.00441,0.00359 0.00702,0.00482 0.02718,0.01297 0.04954,0.02138 0.04112,0.05935 -0.00397,0.01765 -0.01704,0.0301 -0.03919,0.03735 -0.00297,0.00102 -0.00628,0.00139 -0.00956,0.00106 -0.04041,-0.00386 -0.0177,-0.04218 -0.03252,-0.06708 -0.00491,-0.0083 -0.0102,-0.01492 -0.01587,-0.0199 -0.04208,-0.03688 -0.0751,-0.06341 -0.09906,-0.07961 -0.00807,-0.00544 -0.01651,-0.01412 -0.02534,-0.02604 -0.00068,-0.00087 -0.00105,-0.00194 -0.00105,-0.00303 0,-0.00272 0.0022,-0.00491 0.00491,-0.00491 0.00023,0 0.00046,0.00002 0.00069,0.00005l0 0z"/>
    </g>
    <g>
     <path class="fil0" d="M0.44836 6.7419c0.0039,-0.00027 0.00694,-0.00351 0.00694,-0.00744 0,-0.00012 -0.00001,-0.00024 -0.00001,-0.00037 -0.00333,-0.07312 0.05759,-0.12765 0.12869,-0.12975 0.00002,0 0.00004,0 0.00006,0 0.00271,0 0.00491,0.0022 0.00491,0.00491 0,0.00167 -0.00085,0.00321 -0.00225,0.00412 -0.06286,0.03944 -0.06427,0.13256 -0.02823,0.18692 0.02478,0.03735 0.04074,0.06426 0.04787,0.08074 0.04059,0.09434 0.02726,0.18893 -0.03069,0.27248 -0.01941,0.028 -0.03039,0.04743 -0.03296,0.0583 -0.01359,0.05751 -0.00964,0.11968 0.04261,0.15624 0.00093,0.00065 0.00161,0.00148 0.00204,0.00245 0.00134,0.003 -0.00005,0.00655 -0.00309,0.00791 -0.00096,0.00043 -0.00201,0.0006 -0.00304,0.00051 -0.07033,-0.00648 -0.12276,-0.04997 -0.12775,-0.12185 -0.0002,-0.00349 -0.00273,-0.00653 -0.0062,-0.00735 -0.01931,-0.00422 -0.03218,-0.01097 -0.03861,-0.02027 -0.00039,-0.0006 -0.00066,-0.00109 -0.00089,-0.0016 -0.00221,-0.00495 0.00006,-0.01077 0.00506,-0.013 0.00049,-0.00021 0.00099,-0.00039 0.00151,-0.00053 0.05438,-0.01469 0.1104,-0.08518 0.13864,-0.13436 0.05768,-0.1002 0.00648,-0.18551 -0.06453,-0.26038 -0.02244,-0.02361 -0.04717,-0.03933 -0.07418,-0.04717 -0.00465,-0.0013 -0.00789,-0.00555 -0.00789,-0.01039 0,-0.00372 0.00193,-0.0072 0.00509,-0.00915 0.00993,-0.00626 0.02223,-0.0099 0.03691,-0.01096z"/>
     <path class="fil0" d="M0.52287 6.97205c-0.05102,-0.00923 -0.09553,-0.03054 -0.13353,-0.06391 -0.01482,-0.01307 -0.02025,-0.03823 -0.04375,-0.04068 -0.03025,-0.00307 -0.05093,-0.01439 -0.04085,-0.05007 0.00643,-0.02296 0.02061,-0.0355 0.04252,-0.03761 0.00247,-0.00023 0.00487,-0.0001 0.00719,0.00037 0.01368,0.00285 0.02145,0.01614 0.02332,0.03987 0.00088,0.01008 0.00554,0.01921 0.01301,0.02569l0.13542 0.11932c0.00088,0.00077 0.00139,0.00188 0.00139,0.00303 0,0.00223 -0.00181,0.00403 -0.00403,0.00403 -0.00023,0 -0.00046,-0.00002 -0.00068,-0.00005l-0.00001 0z"/>
     <path class="fil0" d="M0.43818 6.99326c0,0.00263 -0.00094,0.00417 -0.00281,0.00464 -0.04027,0.00918 -0.07575,0.02549 -0.10644,0.04893 -0.02671,0.02028 -0.04532,0.0325 -0.05584,0.03665 -0.04431,0.01724 -0.08405,0.0035 -0.11924,-0.04121 -0.00228,-0.00293 -0.01148,-0.01897 -0.02761,-0.04813 -0.00044,-0.00079 -0.00027,-0.00027 -0.00027,-0.00167 0,-0.00132 -0.00008,-0.00088 0.00027,-0.00158 0.0163,-0.02911 0.0256,-0.04512 0.02788,-0.04805 0.03541,-0.04454 0.07521,-0.05806 0.1194,-0.04059 0.01052,0.00421 0.02908,0.01654 0.05568,0.037 0.03057,0.02356 0.06596,0.04004 0.10617,0.04945 0.00187,0.00041 0.00281,0.00193 0.00281,0.00456zm-0.24697 -0.00009c-0.00006,0.00421 0.00214,0.01049 0.00658,0.01885 0.01753,0.03253 0.05137,0.04954 0.08285,0.022 0.00917,-0.008 0.0266,-0.02025 0.05225,-0.03673 0.00064,-0.00041 0.00105,-0.00079 0.00123,-0.00114 0.00023,-0.00059 0.00035,-0.0012 0.00035,-0.00185 0,-0.00058 -0.00012,-0.00117 -0.00035,-0.00175 -0.00018,-0.00035 -0.00056,-0.00074 -0.00114,-0.00114 -0.02543,-0.01695 -0.04264,-0.02949 -0.05164,-0.03762 -0.03104,-0.02805 -0.06514,-0.01166 -0.0832,0.02061 -0.00462,0.00824 -0.00693,0.0145 -0.00693,0.01876z"/>
     <circle class="fil0" cx="0.04041" cy="6.99203" r="0.04042"/>
     <path class="fil0" d="M0.52603 7.01447c0.00021,-0.00005 0.00042,-0.00007 0.00064,-0.00007 0.00169,0 0.00306,0.00138 0.00306,0.00307 0,0.00044 -0.0001,0.00088 -0.00029,0.00129 -0.00146,0.0031 -0.00353,0.00582 -0.00623,0.00816 -0.04857,0.04308 -0.08419,0.07245 -0.10687,0.08811 -0.02537,0.01748 -0.03826,0.03785 -0.03866,0.06111 -0.00105,0.06173 -0.0768,0.0341 -0.074,-0.02017 0.00132,-0.0256 0.02561,-0.03174 0.05059,-0.03936 0.00357,-0.00104 0.00692,-0.00331 0.00934,-0.00642 0.03959,-0.05083 0.09372,-0.08274 0.16241,-0.09572z"/>
    </g>
   </g>
   <g>
    <path class="fil0" d="M0.64727 7.77189c-0.00033,0.05609 0.00934,0.11043 0.05598,0.14457 0.00158,0.00115 0.00251,0.00297 0.00251,0.00491 0,0.00111 -0.0003,0.00219 -0.00087,0.00313l-0.00011 0.00011c-0.00104,0.00173 -0.00292,0.00278 -0.00493,0.00278 -0.00081,0 -0.00162,-0.00017 -0.00236,-0.0005 -0.06185,-0.02869 -0.09881,-0.08717 -0.09848,-0.15533 0.00044,-0.06815 0.03816,-0.12609 0.10022,-0.15402 0.00075,-0.00033 0.00155,-0.00051 0.00236,-0.00051 0.00202,0 0.00389,0.00106 0.00493,0.00279l0.0001 0.00011c0.00058,0.00094 0.00088,0.00203 0.00088,0.00312 0,0.00195 -0.00093,0.00377 -0.00251,0.00492 -0.04706,0.03358 -0.05739,0.08783 -0.05771,0.14392z"/>
    <path class="fil0" d="M7.71401 7.77244c-0.00033,0.06783 -0.03772,0.12554 -0.09946,0.15337 -0.00074,0.00032 -0.00154,0.00049 -0.00235,0.00049 -0.00202,0 -0.00389,-0.00105 -0.00493,-0.00278l-0.00011 -0.00011c-0.00157,-0.00272 -0.00087,-0.00614 0.00163,-0.00794 0.04685,-0.03347 0.05706,-0.0875 0.05728,-0.14326 0.00033,-0.05577 -0.00934,-0.10979 -0.05587,-0.1437 -0.00253,-0.00186 -0.0032,-0.0053 -0.00161,-0.00799l0.00008 -0.00006c0.00105,-0.00173 0.00292,-0.00279 0.00493,-0.00279 0.00082,0 0.00162,0.00017 0.00236,0.0005 0.06152,0.02848 0.09837,0.08652 0.09804,0.15425z"/>
    <path class="fil0" d="M7.2316 7.63667c-0.00071,0.00009 -0.00141,-0.00005 -0.002,-0.00042 -0.00142,-0.00089 -0.00183,-0.00281 -0.00091,-0.00429 0.00036,-0.00057 0.00089,-0.00102 0.00152,-0.00128 0.04248,-0.01672 0.0965,-0.01629 0.11889,0.02969 0.02326,0.04775 0.0482,0.10511 0.07478,0.17207 0.00208,0.00552 0.00558,0.01122 0.01004,0.01609 0.00642,0.00702 0.01478,0.01318 0.02507,0.01847 0.00141,0.0007 0.00229,0.00214 0.00229,0.00369 0,0.00229 -0.00185,0.00413 -0.00412,0.00413 -0.00004,0 -0.00008,0 -0.00012,0l-0.08152 0c-0.00304,-0.00003 -0.0055,-0.00251 -0.0055,-0.00555 0,-0.00059 0.0001,-0.00118 0.00028,-0.00174 0.00609,-0.01782 0.00308,-0.03634 -0.00901,-0.05554 -0.00189,-0.00305 -0.00533,-0.00493 -0.00905,-0.0049l-0.06584 0.00175c-0.00317,0.00007 -0.00617,0.00154 -0.00816,0.00401 -0.00152,0.00197 -0.00376,0.00711 -0.00674,0.01544 -0.00511,0.01413 -0.0113,0.02424 -0.00152,0.03718 0.00038,0.00049 0.00069,0.00107 0.0009,0.00168 0.00108,0.00312 -0.00054,0.00651 -0.0036,0.00757 -0.00063,0.00021 -0.00129,0.00032 -0.00196,0.00031l-0.05458 0.00001c-0.00007,0 -0.00015,0 -0.00022,0 -0.00305,0 -0.00554,-0.00249 -0.00554,-0.00554 0,-0.00248 0.00164,-0.00465 0.00401,-0.00533 0.02229,-0.00728 0.02588,-0.02097 0.03446,-0.04054 0.02906,-0.06682 0.04765,-0.11109 0.05576,-0.13283 0.00387,-0.01064 0.002,-0.02226 -0.00484,-0.03099 -0.01402,-0.01797 -0.03493,-0.02569 -0.06276,-0.02315zm0.0863 0.15185c0.01145,0.00014 0.01892,0.00011 0.0224,-0.00011 0.00047,-0.00004 0.00089,-0.00011 0.00131,-0.00022 0.00358,-0.00096 0.00571,-0.0047 0.00473,-0.00836 -0.0001,-0.00039 -0.00024,-0.00078 -0.00042,-0.00115 -0.00925,-0.02004 -0.01628,-0.03955 -0.02106,-0.05854 -0.00072,-0.00297 -0.00272,-0.00449 -0.00598,-0.00456 -0.00332,-0.00007 -0.00539,0.00138 -0.00619,0.00435 -0.00522,0.01891 -0.01272,0.0383 -0.0225,0.05815 -0.00017,0.00035 -0.00032,0.00072 -0.00042,0.00111 -0.00105,0.00363 0.00101,0.00741 0.00458,0.00844 0.00042,0.00012 0.00084,0.0002 0.00127,0.00023 0.0034,0.00037 0.01083,0.00059 0.02228,0.00066z"/>
    <path class="fil0" d="M5.69949 7.63711c-0.00036,0.00123 -0.00344,0.00456 -0.00923,0.00999 -0.00332,0.00299 -0.00529,0.00736 -0.00533,0.01192l0 0.21287c0,0.00003 0,0.00006 0,0.00009 0,0.00264 -0.00214,0.00478 -0.00478,0.00478 -0.00132,0 -0.00258,-0.00055 -0.00347,-0.0015l-0.15305 -0.15632c-0.00121,-0.00123 -0.00286,-0.00192 -0.00457,-0.00192 -0.00343,0 -0.00627,0.00272 -0.00641,0.00616 -0.00094,0.03413 -0.00072,0.07529 0.00066,0.12348 0.00029,0.00964 0.00503,0.01583 0.01424,0.01859 0.002,0.00062 0.00335,0.00248 0.00335,0.00456 0,0.00264 -0.00213,0.00477 -0.00477,0.00478l-0.07499 0.00001c-0.00225,-0.00007 -0.00403,-0.0019 -0.00403,-0.00413 0,-0.00157 0.00089,-0.00299 0.0023,-0.00369 0.01326,-0.00642 0.01967,-0.01447 0.01967,-0.02979 0.00007,-0.07514 -0.00142,-0.14424 -0.00445,-0.20729 -0.00001,-0.00008 -0.00001,-0.00017 -0.00001,-0.00026 0,-0.00299 0.00244,-0.00543 0.00543,-0.00543 0.00143,0 0.0028,0.00056 0.00381,0.00156l0.15413 0.15761c0.0012,0.00125 0.00285,0.00196 0.00457,0.00196 0.00348,0 0.00631,-0.00282 0.00631,-0.0063 0,-0.00004 0,-0.00008 0,-0.00012 0,-0.02832 0.00054,-0.06554 0.00163,-0.11162 0.00029,-0.01196 -0.00431,-0.02087 -0.01381,-0.02674 -0.00132,-0.00079 -0.00213,-0.00221 -0.00213,-0.00374 0,-0.0024 0.00195,-0.00434 0.00434,-0.00434 0.0002,0 0.00041,0.00002 0.00061,0.00004 0.02739,0.00355 0.04895,0.0033 0.06468,-0.00076 0.0004,-0.00011 0.00082,-0.00017 0.00123,-0.00016 0.0024,0.00004 0.0043,0.00208 0.00426,0.00453 -0.00001,0.0004 -0.00006,0.0008 -0.00017,0.00118l0 0z"/>
    <path class="fil0" d="M2.67538 7.63124c0.00041,-0.00012 0.00082,-0.00018 0.00123,-0.00017 0.0024,0.00004 0.00431,0.00208 0.00427,0.00453 -0.00001,0.0004 -0.00007,0.00081 -0.00018,0.00119 -0.00036,0.00123 -0.0034,0.00455 -0.00912,0.00999 -0.00329,0.00295 -0.00528,0.00731 -0.00532,0.01189l0.00054 0.21246c0,0.00002 0,0.00005 0,0.00008 0,0.00265 -0.00214,0.00478 -0.00478,0.00478 -0.00132,0 -0.00258,-0.00054 -0.00348,-0.0015l-0.15305 -0.15565c-0.0012,-0.00123 -0.00285,-0.00192 -0.00456,-0.00192 -0.00347,0 -0.00632,0.00278 -0.00641,0.00626 -0.00087,0.03406 -0.00055,0.07511 0.00098,0.12316 0.00029,0.00963 0.00503,0.01579 0.01424,0.01847 0.002,0.00063 0.00335,0.00248 0.00335,0.00456 0,0.00265 -0.00213,0.00478 -0.00476,0.00478l-0.07479 0.00023c-0.00224,-0.00006 -0.00402,-0.0019 -0.00402,-0.00413 0,-0.00157 0.00089,-0.00299 0.0023,-0.00369 0.01315,-0.00642 0.01956,-0.01446 0.01956,-0.02979 -0.00014,-0.07492 -0.00182,-0.14384 -0.005,-0.20674 -0.00005,-0.00091 0.00008,-0.00173 0.00039,-0.0025 0.00113,-0.00279 0.00425,-0.00415 0.00698,-0.00304 0.00074,0.0003 0.0014,0.00077 0.00194,0.00136l0.15407 0.15691c0.00119,0.00125 0.00285,0.00196 0.00457,0.00196 0.00348,0 0.0063,-0.00283 0.0063,-0.00631 0,-0.00004 0,-0.00007 0,-0.00011 -0.00007,-0.02826 0.00036,-0.06539 0.0013,-0.11141 0.0003,-0.01196 -0.0043,-0.02083 -0.0138,-0.02663 -0.00132,-0.00079 -0.00213,-0.00222 -0.00213,-0.00374 0,-0.00241 0.00195,-0.00435 0.00435,-0.00435 0.0002,0 0.00041,0.00002 0.0006,0.00004 0.02732,0.00348 0.04881,0.00316 0.06446,-0.00097z"/>
    <path class="fil0" d="M0.87096 7.62949c0.02414,0.0016 0.06048,0.00211 0.10903,0.00153 0.12175,-0.00141 0.09751,0.16251 -0.01521,0.13849 -0.00501,-0.00097 -0.00864,-0.00536 -0.00864,-0.01047 0,-0.00523 0.0038,-0.00969 0.00896,-0.01051 0.02848,-0.00507 0.04225,-0.02206 0.0413,-0.05097 -0.00071,-0.01998 -0.01292,-0.03773 -0.0313,-0.04555l-0.01142 -0.00489c-0.00209,-0.00088 -0.00435,-0.00134 -0.00663,-0.00134 -0.00942,0 -0.01706,0.00764 -0.01706,0.01706 0,0.00001 0,0.00003 0,0.00004l-0.00001 0.18642c-0.00001,0.00235 0.001,0.00465 0.00279,0.00626l0.01342 0.01179c0.00038,0.00033 0.00072,0.00079 0.00096,0.0013 0.00094,0.00201 0.00011,0.00438 -0.00185,0.00529 -0.00053,0.00025 -0.0011,0.00037 -0.00167,0.00036l-0.08168 0.00001c-0.0007,-0.00002 -0.00143,-0.00022 -0.00207,-0.00059 -0.00203,-0.00117 -0.00275,-0.00372 -0.00161,-0.0057 0.00038,-0.00064 0.00092,-0.00117 0.00158,-0.00153 0.01405,-0.00773 0.01938,-0.01653 0.01883,-0.03305 -0.00189,-0.06783 -0.00265,-0.12443 -0.00229,-0.16979 0.00002,-0.00365 -0.00104,-0.00725 -0.00301,-0.0103 -0.00371,-0.00574 -0.00883,-0.01067 -0.01534,-0.01481 -0.00143,-0.0009 -0.0023,-0.00246 -0.0023,-0.00414 0,-0.00271 0.0022,-0.00489 0.00489,-0.00489 0.00012,0 0.00023,0 0.00034,0.00001l-0.00001 0z"/>
    <path class="fil0" d="M1.33783 7.77569c-0.00001,0.00049 -0.00011,0.00096 -0.0003,0.0014 -0.00082,0.00194 -0.003,0.00286 -0.00489,0.00206 -0.00046,-0.0002 -0.00088,-0.00049 -0.00123,-0.00086 -0.01355,-0.01398 -0.03521,-0.01872 -0.06499,-0.01423 -0.00424,0.00064 -0.00739,0.00429 -0.00739,0.00859l0.00032 0.07044c0.00002,0.00492 0.00353,0.00914 0.00836,0.00999 0.04755,0.00863 0.08026,-0.00445 0.09816,-0.03923 0.00101,-0.0017 0.00283,-0.00274 0.00479,-0.00274 0.00305,0 0.00554,0.00248 0.00554,0.00554 0,0.00064 -0.00011,0.00127 -0.00033,0.00187l-0.02141 0.05087c-0.00111,0.00264 -0.00365,0.00434 -0.00644,0.00434l-0.1553 0.00066c0,-0.00001 -0.00001,-0.00001 -0.00001,-0.00001 -0.00187,0 -0.00337,-0.00151 -0.00337,-0.00336 0,-0.00115 0.00058,-0.00221 0.00154,-0.00283 0.01206,-0.00794 0.01869,-0.01587 0.01858,-0.03109 -0.00065,-0.05428 -0.00127,-0.10932 -0.00185,-0.16511 -0.00007,-0.01385 -0.00532,-0.02522 -0.01576,-0.03413 -0.00096,-0.00072 -0.00152,-0.00186 -0.00152,-0.00305 0,-0.0021 0.0017,-0.0038 0.0038,-0.0038 0.00007,0 0.00015,0 0.00022,0.00001l0.15446 -0.00065c0.00004,-0.00001 0.00008,-0.00001 0.00011,-0.00001 0.00348,0 0.00631,0.00283 0.00631,0.00631 0,0 0,0 0,0l0.0001 0.04478c0.00003,0.00072 -0.00016,0.00144 -0.00056,0.00204 -0.00108,0.00167 -0.00334,0.00211 -0.00505,0.001 -0.00058,-0.00038 -0.00104,-0.0009 -0.00134,-0.00152l-0.01142 -0.02554c-0.002,-0.00468 -0.0066,-0.00773 -0.01169,-0.00773 -0.00001,0 -0.00003,0 -0.00004,0l-0.0587 0.00033c-0.0001,0 -0.00011,0 -0.00012,0 -0.00377,0.00007 -0.00678,0.00321 -0.00673,0.00704l0.00043 0.08112c0.00001,0 0.00001,0 0.00001,0.00001 0,0.00403 0.00314,0.00737 0.00717,0.0076 0.01464,0.00065 0.02993,-0.00029 0.04587,-0.00283 0.00536,-0.0008 0.00923,-0.00388 0.01163,-0.00924 0.00347,-0.00776 0.00735,-0.01079 0.01163,-0.00912 0.00073,0.00028 0.0012,0.00101 0.0012,0.00186l0.00021 0.04923z"/>
    <path class="fil0" d="M1.73665 7.63037c0.02037,0.0042 0.04381,0.00445 0.07033,0.00076 0.00022,-0.00004 0.00043,-0.00006 0.00064,-0.00006 0.00199,0 0.00359,0.00161 0.00359,0.00358 0,0.00091 -0.00035,0.00179 -0.00097,0.00245l-0.00881 0.01c-0.00268,0.00303 -0.00413,0.00694 -0.00413,0.01101 0.00014,0.07419 0.0004,0.11809 0.00076,0.13172 0.00145,0.05036 0.02695,0.0725 0.07652,0.06641 0.03233,-0.00398 0.04946,-0.02275 0.05141,-0.05631 0.00153,-0.02558 0.00204,-0.06902 0.00153,-0.13033 -0.00007,-0.00912 -0.00555,-0.02137 -0.01641,-0.03674 -0.00019,-0.00029 -0.0003,-0.00063 -0.0003,-0.00098 0,-0.00095 0.00076,-0.00173 0.00172,-0.00175l0.04967 0.00088c0.0002,0 0.00041,0.00002 0.00062,0.00006 0.00255,0.0004 0.00429,0.00275 0.0039,0.00523 -0.00004,0.00023 -0.0001,0.00045 -0.00017,0.00067 -0.00273,0.00839 -0.01294,0.01415 -0.01327,0.02762 -0.00072,0.02703 -0.00025,0.05769 0.00142,0.09197 0.00424,0.08619 -0.04,0.13011 -0.12675,0.11772 -0.05163,-0.0074 -0.08283,-0.03946 -0.08206,-0.09315 0.00101,-0.0724 0.00123,-0.11233 0.00065,-0.11979 -0.00066,-0.00878 -0.00522,-0.01623 -0.0137,-0.02239 -0.00128,-0.0009 -0.00205,-0.00237 -0.00205,-0.00393 0,-0.00265 0.00214,-0.00478 0.00478,-0.00478 0.00036,0 0.00072,0.00004 0.00107,0.00012l0 0.00001z"/>
    <path class="fil0" d="M2.31438 7.86831c0.00047,0.00025 0.00088,0.00064 0.00117,0.00113 0.00087,0.00144 0.00044,0.00328 -0.00095,0.00411 -0.00048,0.0003 -0.00104,0.00044 -0.00161,0.00041l-0.08004 -0.00011c-0.00064,-0.00001 -0.0012,-0.00011 -0.00173,-0.00028 -0.00302,-0.00098 -0.00466,-0.00428 -0.00365,-0.00736 0.00018,-0.00056 0.00044,-0.00109 0.00077,-0.00157 0.00062,-0.00097 0.00147,-0.00218 0.00256,-0.00362 0.0021,-0.0029 0.00307,-0.00558 0.00294,-0.00804 -0.00073,-0.01479 -0.00562,-0.02884 -0.01468,-0.04218 -0.00187,-0.00267 -0.00478,-0.00416 -0.00786,-0.00413l-0.06693 -0.00011c-0.00295,-0.00001 -0.00566,0.00182 -0.00683,0.00462l-0.0147 0.0344c-0.00232,0.0052 -0.00124,0.01148 0.0028,0.01572 0.00415,0.00401 0.00623,0.00649 0.00623,0.00743 -0.00023,0.00306 -0.00279,0.00543 -0.00585,0.00543 -0.00001,0 -0.00002,0 -0.00002,0l-0.05229 0.00045c-0.00203,-0.00003 -0.00366,-0.00168 -0.00366,-0.0037 0,-0.00122 0.0006,-0.00236 0.0016,-0.00304l0.02305 -0.01706c0.00054,-0.00039 0.00095,-0.00088 0.00122,-0.00146l0.09205 -0.21562c0.00026,-0.00057 0.0006,-0.00106 0.00102,-0.00147 0.00177,-0.00171 0.00456,-0.0017 0.00623,0.00003 0.00041,0.00043 0.00072,0.00093 0.00093,0.00148 0.01686,0.04288 0.04751,0.11199 0.09194,0.20736 0.00514,0.01116 0.01391,0.02022 0.02631,0.02717zm-0.16566 -0.08717c-0.00027,0.00068 -0.00041,0.00143 -0.00041,0.00217 0,0.00319 0.00256,0.0058 0.00574,0.00587l0.04717 0.00044c0.00001,0 0.00001,0 0.00002,0 0.00323,0 0.00587,-0.00264 0.00587,-0.00587 0,-0.00067 -0.00012,-0.00133 -0.00034,-0.00196l-0.02283 -0.06261c-0.00085,-0.00232 -0.00304,-0.00384 -0.00551,-0.00384 -0.00242,0 -0.00458,0.00148 -0.00546,0.00373l-0.02425 0.06208z"/>
    <path class="fil0" d="M3.03778 7.69711c0,-0.00001 0,0 0,0 0,0.00204 -0.00166,0.00369 -0.00369,0.00369 -0.00146,0 -0.00278,-0.00085 -0.00337,-0.00218 -0.01695,-0.03725 -0.04536,-0.05485 -0.08522,-0.05282 -0.09848,0.00489 -0.1062,0.17218 -0.03087,0.20576 0.02674,0.01174 0.08359,0.00609 0.08837,-0.03282 0.00283,-0.02304 -0.00156,-0.04236 -0.01316,-0.05793 -0.00038,-0.00055 -0.00059,-0.0012 -0.00059,-0.00186 0,-0.00172 0.00138,-0.00312 0.00309,-0.00315l0.06521 0.00033c0.00224,0.00007 0.004,0.0019 0.004,0.00412 0,0.00091 -0.00029,0.00179 -0.00084,0.00251 -0.00957,0.01225 -0.01305,0.03175 -0.01044,0.05848 0.00008,0.00082 0.00012,0.00165 0.00012,0.00248 0,0.00798 -0.00364,0.01551 -0.0099,0.02047 -0.03251,0.02587 -0.08479,0.03826 -0.12479,0.03065 -0.0755,-0.01428 -0.10877,-0.06304 -0.09978,-0.1463 0.00587,-0.05512 0.04837,-0.09077 0.10565,-0.09859 0.0345,-0.00471 0.07015,-0.00058 0.10696,0.01239 0.00568,0.00203 0.00946,0.0074 0.00946,0.01341 0,0.00003 0,0.00005 0,0.00007l-0.00022 0.04131z"/>
    <path class="fil0" d="M3.38387 7.8745c-0.00068,0.00002 -0.00133,-0.00016 -0.00187,-0.00052 -0.00144,-0.00098 -0.0018,-0.00297 -0.00079,-0.00447 0.00037,-0.00054 0.00089,-0.00096 0.00149,-0.00121 0.00738,-0.00318 0.01291,-0.00731 0.0166,-0.01238 0.00241,-0.00332 0.0037,-0.00732 0.0037,-0.01142 0,0 0,0 0,0 0.00014,-0.06109 0.00057,-0.12116 0.0013,-0.18022 0.00007,-0.01138 -0.00551,-0.02 -0.01674,-0.02588 -0.00082,-0.00043 -0.00147,-0.00113 -0.00183,-0.00197 -0.00086,-0.00205 0.00014,-0.00442 0.00223,-0.00532 0.00085,-0.00035 0.00178,-0.00043 0.00266,-0.00021 0.00955,0.00269 0.01702,0.00391 0.02238,0.00369 0.05297,-0.00203 0.08822,-0.00228 0.10576,-0.00076 0.1537,0.01337 0.14229,0.23229 -0.01098,0.23936 -0.01492,0.00072 -0.05623,0.00116 -0.12391,0.0013zm0.06935 -0.21902l-0.00066 0.19391c0.00001,0.00354 0.00288,0.00641 0.00642,0.00641l0.03152 0.00012c0.04526,0.00075 0.0836,-0.0374 0.08445,-0.08525l0.00023 -0.03443c-0.00001,0.00117 -0.00001,0.00115 -0.00001,0.00114 0.00084,-0.04789 -0.0362,-0.08738 -0.08271,-0.0882 -0.00002,0 -0.00006,0 -0.00008,0l-0.03274 -0.00011c-0.00353,-0.00001 -0.00641,0.00287 -0.00641,0.00641l0 0z"/>
    <path class="fil0" d="M3.93649 7.8207l-0.02162 0.05097c-0.00058,0.00144 -0.002,0.00239 -0.00358,0.00239l-0.15218 0.00001c-0.0019,-0.00004 -0.0034,-0.00159 -0.0034,-0.00348 0,-0.00112 0.00054,-0.00217 0.00145,-0.00283 0.00999,-0.0071 0.01514,-0.01506 0.01543,-0.02391 0.00123,-0.04681 0.00105,-0.10327 -0.00054,-0.16935 -0.00044,-0.01608 0.00152,-0.0262 -0.01447,-0.03587 -0.0005,-0.00033 -0.00095,-0.00079 -0.00126,-0.00133 -0.00105,-0.00183 -0.00047,-0.00412 0.0013,-0.00515 0.00055,-0.00031 0.00117,-0.00048 0.0018,-0.00048l0.15317 0c0.00354,0 0.00642,0.00287 0.00642,0.00641l0 0.04196c0.00001,0.00095 -0.00027,0.00189 -0.00079,0.0027 -0.00151,0.00232 -0.00464,0.00295 -0.00701,0.00142 -0.00081,-0.00053 -0.00146,-0.00127 -0.00187,-0.00214l-0.01034 -0.02338c-0.00224,-0.00509 -0.00727,-0.00838 -0.01282,-0.00838l-0.05284 0c-0.00581,0 -0.01053,0.00472 -0.01053,0.01054l-0.00001 0.07425c0.00001,0.00552 0.00443,0.00999 0.0099,0.00999l0.03912 0.00001c0.00399,0.00001 0.0079,-0.00176 0.01061,-0.00484l0.01287 -0.01462c0.0006,-0.00063 0.00143,-0.00099 0.00229,-0.00099 0.0017,0 0.00309,0.00135 0.00315,0.00304l-0.00001 0.045c0.00001,0.00002 0.00001,0.00005 0.00001,0.00007 0,0.00324 -0.00264,0.00587 -0.00587,0.00587 -0.0015,0 -0.00294,-0.00057 -0.00402,-0.00159 -0.01783,-0.01641 -0.02588,-0.01381 -0.05349,-0.01468 -0.00013,-0.00001 -0.00029,-0.00001 -0.00043,-0.00001 -0.00853,0 -0.01543,0.00691 -0.01543,0.01543 0,0 0,0 0,0l0 0.0624c0,-0.00001 0,0 0,0 0,0.00865 0.00701,0.01565 0.01565,0.01565 0.00011,0 0.00022,0 0.00033,-0.00001 0.04651,-0.00119 0.06282,0.00295 0.09098,-0.03945 0.0008,-0.00148 0.00234,-0.0024 0.00402,-0.0024 0.00253,0 0.00457,0.00205 0.00457,0.00457 0,0.00076 -0.00019,0.00151 -0.00055,0.00217l-0.00001 0.00001z"/>
    <path class="fil0" d="M4.28694 7.63569c-0.00131,0.00696 -0.02033,0.01554 -0.02609,0.02805 -0.04414,0.09696 -0.07525,0.16667 -0.09337,0.20913 -0.00016,0.00038 -0.00041,0.00078 -0.00074,0.00111 -0.00142,0.00147 -0.00378,0.00148 -0.0053,0.00002 -0.00032,-0.00031 -0.00059,-0.00068 -0.00079,-0.00108l-0.09502 -0.21593c-0.00095,-0.00198 -0.00233,-0.00354 -0.00404,-0.00465l-0.01716 -0.01143c-0.00109,-0.00078 -0.00174,-0.00204 -0.00174,-0.00337 0,-0.00224 0.00179,-0.00407 0.00402,-0.00413l0.08141 0.00001c0.00043,-0.00001 0.00089,0.00007 0.00133,0.00024 0.00204,0.00074 0.00309,0.00294 0.00239,0.00491 -0.00017,0.00045 -0.00042,0.00087 -0.00075,0.00122l-0.006 0.00689c-0.00314,0.00353 -0.00401,0.00854 -0.00228,0.01296l0.0501 0.12465c0.00031,0.00074 0.00075,0.00138 0.00129,0.00192 0.0023,0.0023 0.00598,0.00233 0.00823,0.00008 0.00055,-0.00055 0.00098,-0.00121 0.00127,-0.00193 0.01238,-0.02932 0.02795,-0.06783 0.04672,-0.11551 0.00355,-0.00898 0.00232,-0.02022 -0.00369,-0.03369 -0.00013,-0.00032 -0.0002,-0.00067 -0.0002,-0.00101 0,-0.00144 0.00117,-0.00261 0.00261,-0.00261 0.00011,0 0.00021,0.00001 0.00031,0.00002 0.02087,0.00261 0.03798,0.00207 0.0513,-0.00163 0.00042,-0.00011 0.00086,-0.00017 0.00129,-0.00017 0.00276,0 0.005,0.00224 0.005,0.005 0,0.00031 -0.00003,0.00062 -0.00009,0.00093l0 0z"/>
    <path class="fil0" d="M4.44847 7.63373c0.01739,0 0.02902,-0.0008 0.03489,-0.00239 0.00083,-0.00027 0.00166,-0.00028 0.00246,-0.00006 0.00225,0.00065 0.00353,0.00304 0.00288,0.00535 -0.00023,0.00077 -0.00065,0.00147 -0.00123,0.00201 -0.01062,0.01052 -0.01497,0.01335 -0.01497,0.02846 0,0.05681 0.00105,0.11573 0.00315,0.17674 0.00036,0.0108 0.00536,0.01841 0.01499,0.02282 0.00067,0.00034 0.00126,0.00087 0.00169,0.00153 0.00131,0.00202 0.00078,0.00468 -0.00119,0.00595 -0.00066,0.00043 -0.00142,0.00066 -0.00221,0.00068 -0.01321,0 -0.02663,0 -0.04024,0 -0.01363,0 -0.02703,0.00004 -0.04022,0.00011 -0.00082,-0.00002 -0.00158,-0.00025 -0.00224,-0.00068 -0.00196,-0.00127 -0.0025,-0.00394 -0.00119,-0.00595 0.00043,-0.00066 0.00102,-0.0012 0.00172,-0.00154 0.00954,-0.00448 0.0145,-0.01212 0.01485,-0.02292 0.00204,-0.06102 0.00297,-0.11993 0.00284,-0.17674 0,-0.01511 -0.00435,-0.01794 -0.015,-0.02837 -0.00053,-0.00052 -0.00094,-0.00119 -0.00115,-0.00194 -0.00066,-0.00231 0.00063,-0.0047 0.00288,-0.00535 0.00074,-0.00021 0.00152,-0.00021 0.00227,0 0.00596,0.00153 0.01764,0.00229 0.03503,0.00229z"/>
    <path class="fil0" d="M4.75903 7.67678c-0.01261,-0.02695 -0.03421,-0.03634 -0.06479,-0.02815 -0.00365,0.00103 -0.00662,0.00315 -0.00862,0.00606 -0.01266,0.01777 -0.01109,0.03303 0.0047,0.04578 0.01152,0.00928 0.03529,0.02685 0.07131,0.05272 0.0238,0.01718 0.03511,0.05555 0.02151,0.08294 -0.02467,0.05 -0.09098,0.04707 -0.13837,0.03098 -0.00841,-0.00276 -0.0142,-0.01064 -0.01425,-0.01953l0.00001 -0.03286c0.00007,-0.00272 0.00229,-0.00486 0.00499,-0.00486 0.00208,0 0.00394,0.00129 0.00467,0.00322 0.01254,0.03624 0.03718,0.05153 0.07392,0.04588 0.01769,-0.00269 0.02917,-0.012 0.03446,-0.02794 0.01087,-0.03282 -0.04674,-0.05946 -0.08043,-0.07935 -0.05033,-0.02968 -0.04936,-0.09978 0.01,-0.11903 0.0184,-0.00594 0.04695,-0.00608 0.08566,-0.00043 0.00397,0.00054 0.00694,0.00397 0.00695,0.00804l0 0.03392c-0.00008,0.00335 -0.00284,0.00603 -0.00619,0.00603 -0.00236,0 -0.0045,-0.00133 -0.00555,-0.00342l0.00001 0z"/>
    <path class="fil0" d="M5.98352 7.77907c-0.01341,-0.01399 -0.03496,-0.01884 -0.06468,-0.01457 -0.00424,0.00064 -0.00739,0.00428 -0.00739,0.00858l0 0.07023c-0.00006,0.00476 0.00335,0.00901 0.00813,0.00996 0.04741,0.0088 0.08014,-0.0041 0.09818,-0.03866 0.0009,-0.00192 0.00283,-0.00313 0.00494,-0.00313 0.00302,0 0.00547,0.00246 0.00547,0.00547 0,0.00081 -0.00018,0.00161 -0.00053,0.00234l-0.02151 0.05065c-0.00114,0.00259 -0.00366,0.00424 -0.00643,0.00423l-0.15488 0.00001c-0.00183,-0.00006 -0.00327,-0.00155 -0.00327,-0.00337 0,-0.00114 0.00058,-0.00221 0.00154,-0.00283 0.01206,-0.00783 0.01869,-0.01576 0.01858,-0.03087 -0.00036,-0.05413 -0.00069,-0.10899 -0.00098,-0.16457 -0.00007,-0.01384 -0.00525,-0.02522 -0.01554,-0.03413 -0.00088,-0.00072 -0.00139,-0.0018 -0.00139,-0.00294 0,-0.0021 0.00171,-0.0038 0.00381,-0.0038 0.00002,0 0.00005,0 0.00008,0l0.15391 0c0.00348,0 0.00631,0.00282 0.00631,0.0063l0 0.04468c0.00001,0.00067 -0.00019,0.00135 -0.00056,0.00193 -0.00108,0.00166 -0.00334,0.00211 -0.00505,0.00099 -0.00058,-0.00037 -0.00104,-0.00089 -0.00134,-0.00149l-0.01132 -0.02545c-0.00196,-0.00468 -0.00654,-0.00773 -0.01161,-0.00773 0,0 -0.00001,0 -0.00001,0l-0.05848 0c-0.00378,0 -0.00685,0.00311 -0.00685,0.00696l0 0.08087c0,0 0,0.00001 0,0.00001 0,0.00403 0.00314,0.00737 0.00717,0.0076 0.01457,0.00073 0.02979,-0.00014 0.04566,-0.00261 0.00536,-0.0008 0.00923,-0.00384 0.01163,-0.00913 0.00354,-0.00775 0.00743,-0.01076 0.01163,-0.00901 0.00071,0.00027 0.00119,0.001 0.00119,0.00185l0 0.04902c0,0.00004 0,0.00007 0,0.00011 0,0.00204 -0.00165,0.00369 -0.00369,0.00369 -0.00103,0 -0.00202,-0.00043 -0.00272,-0.00119l0 0z"/>
    <path class="fil0" d="M6.38059 7.69711c0.00003,0.00067 -0.00016,0.0014 -0.00054,0.00202 -0.00108,0.00173 -0.0034,0.00223 -0.00519,0.00111 -0.00061,-0.00038 -0.0011,-0.00092 -0.00142,-0.00156 -0.01726,-0.03735 -0.04593,-0.0549 -0.08601,-0.05265 -0.09891,0.00543 -0.10587,0.17359 -0.02989,0.20696 0.02695,0.01174 0.08402,0.00576 0.0887,-0.03337 0.00268,-0.02319 -0.00185,-0.04261 -0.01359,-0.05826 -0.00039,-0.00054 -0.0006,-0.00119 -0.0006,-0.00186 0,-0.00172 0.00138,-0.00311 0.00309,-0.00314l0.06555 0c0.00227,0.00001 0.0041,0.00186 0.0041,0.00412 0,0.00091 -0.0003,0.00179 -0.00085,0.0025 -0.00956,0.0124 -0.01297,0.03204 -0.01021,0.05892 0.00085,0.00894 -0.00284,0.0176 -0.00978,0.02313 -0.03251,0.02612 -0.085,0.03883 -0.12522,0.03145 -0.07602,-0.014 -0.10972,-0.06286 -0.10109,-0.14664 0.00565,-0.05544 0.04815,-0.09153 0.10576,-0.09967 0.03464,-0.00493 0.07051,-0.00094 0.10761,0.01195 0.0056,0.00191 0.0095,0.00726 0.00956,0.01331l0 0.0417z"/>
    <path class="fil0" d="M6.76517 7.86896c0.00092,0.00055 0.00148,0.00154 0.00148,0.00262 0,0.00162 -0.00127,0.00296 -0.0029,0.00303l-0.08076 0.00001c-0.00059,0 -0.00118,-0.00008 -0.00174,-0.00026 -0.00304,-0.00093 -0.00474,-0.00419 -0.00379,-0.0073 0.00017,-0.00056 0.00042,-0.0011 0.00075,-0.00159 0.00066,-0.00108 0.00156,-0.00235 0.00272,-0.00379 0.00211,-0.0029 0.00308,-0.00562 0.00295,-0.00816 -0.0008,-0.01485 -0.00577,-0.02902 -0.01489,-0.0425 -0.00176,-0.00259 -0.00469,-0.00413 -0.00782,-0.00413 0,0 -0.00001,0 -0.00001,0l-0.06761 0c-0.00297,-0.00003 -0.00573,0.00179 -0.00694,0.00461l-0.01481 0.03474c-0.00076,0.0018 -0.00116,0.00373 -0.00116,0.00569 0,0.00384 0.00151,0.00754 0.0042,0.01028 0.00405,0.00398 0.00609,0.00645 0.00609,0.0074 -0.00018,0.00309 -0.00276,0.00553 -0.00587,0.00553 0,0 -0.00001,0 -0.00001,0l-0.05271 0.00044c-0.00003,0 -0.00006,0 -0.00008,0 -0.00205,0 -0.0037,-0.00166 -0.0037,-0.00369 0,-0.00122 0.0006,-0.00236 0.00161,-0.00304l0.02326 -0.01728c0.00053,-0.00039 0.00094,-0.00088 0.00122,-0.00145l0.09258 -0.21768c0.00069,-0.00169 0.00233,-0.0028 0.00413,-0.0028 0.00182,0 0.00345,0.00111 0.00413,0.00279 0.0171,0.04327 0.04812,0.11298 0.09304,0.20914 0.00522,0.01123 0.0141,0.02037 0.02664,0.02739zm-0.10642 -0.08957l-0.02598 -0.06489c-0.00061,-0.00138 -0.00198,-0.00227 -0.00347,-0.00227 -0.00151,0 -0.00287,0.00089 -0.00348,0.00227l-0.02967 0.06967c-0.00019,0.00041 -0.00029,0.00086 -0.00029,0.00131 0,0.00174 0.00142,0.00314 0.00315,0.00314 0.00002,0 0.00005,0 0.00007,0l0.05337 0.00001c0.00001,-0.00001 0.00003,-0.00001 0.00004,-0.00001 0.00372,0 0.00674,-0.00301 0.00674,-0.00674 0,-0.00085 -0.00016,-0.0017 -0.00048,-0.0025l0 0z"/>
    <path class="fil0" d="M6.88877 7.62939c0.04337,0.00988 0.16565,-0.02033 0.18055,0.04946 0.00663,0.03087 -0.00326,0.06402 -0.03315,0.07674 -0.00276,0.00116 -0.00485,0.00221 -0.0063,0.00315 -0.00152,0.00097 -0.00244,0.00266 -0.00244,0.00446 0,0.00113 0.00036,0.00223 0.00102,0.00313l0.06033 0.08131c0.00108,0.00144 0.00237,0.00273 0.0038,0.0038l0.02402 0.01739c0.00075,0.00053 0.00119,0.00139 0.00119,0.00231 0,0.00143 -0.00107,0.00264 -0.0025,0.00281 -0.0764,0.00783 -0.09543,-0.02642 -0.12369,-0.08728 -0.00165,-0.00365 -0.00427,-0.0076 -0.00746,-0.01103l-0.01124 -0.01147c-0.00144,-0.00145 -0.00225,-0.00341 -0.00225,-0.00545 0,-0.00408 0.00317,-0.00746 0.00725,-0.00771 0.03094,-0.00188 0.045,-0.02245 0.04218,-0.06174 -0.00099,-0.01341 -0.00938,-0.02516 -0.02174,-0.03044l-0.02293 -0.00967c-0.00203,-0.00087 -0.00421,-0.00132 -0.00642,-0.00132 -0.009,0 -0.0163,0.0073 -0.0163,0.0163 0,0.00001 0,0.00001 0,0.00001l0 0.17958c0,0.00485 0.00211,0.00949 0.00578,0.01274l0.01205 0.01063c0.00088,0.00076 0.00139,0.00188 0.00139,0.00304 0,0.00221 -0.00179,0.004 -0.004,0.00401l-0.08261 0.00001c-0.00184,-0.00003 -0.00332,-0.00153 -0.00332,-0.00337 0,-0.00107 0.00051,-0.00209 0.00137,-0.00272l0.01381 -0.01021c0.00369,-0.00274 0.00587,-0.00705 0.00587,-0.01164 0,0 0,0 0,0l0 -0.18359c-0.00004,-0.00307 -0.00103,-0.00589 -0.00283,-0.0082l-0.01479 -0.01996c-0.00041,-0.00056 -0.00063,-0.00124 -0.00063,-0.00194 0,-0.0018 0.00146,-0.00325 0.00325,-0.00325 0.00026,0 0.00051,0.00003 0.00075,0.00008l0 0.00001z"/>
    <path class="fil0" d="M1.58686 7.64047c-0.00123,0.00117 -0.00416,0.00369 -0.00881,0.00762 -0.00389,0.00321 -0.00632,0.0081 -0.00651,0.01328 -0.00175,0.05955 0.00412,0.12465 0.0014,0.18868 -0.00228,0.05228 -0.02554,0.0863 -0.08119,0.08978 -0.00008,0 -0.00017,0 -0.00026,0 -0.00295,0 -0.00532,-0.00238 -0.00532,-0.00532 0,-0.00167 0.00078,-0.00323 0.00211,-0.00424 0.02565,-0.01935 0.03314,-0.03848 0.03358,-0.07239 0.00131,-0.11254 0.00196,-0.17707 0.00196,-0.19359 0,-0.01051 -0.00482,-0.0187 -0.01446,-0.02457 -0.0011,-0.00068 -0.00177,-0.00187 -0.00177,-0.00315 0,-0.00201 0.00161,-0.00365 0.00361,-0.00369l0.07261 0c0.00243,0.00005 0.00435,0.00204 0.00435,0.00445 0,0.00119 -0.00047,0.00232 -0.0013,0.00315l-0.00001 0z"/>
    <path class="fil0" d="M5.14589 7.86809c0.00038,0.00025 0.00072,0.0006 0.00098,0.00102 0.00086,0.00144 0.00044,0.00328 -0.00095,0.00411 -0.00043,0.00026 -0.00092,0.0004 -0.00142,0.00041l-0.07993 -0.00011c0,0 0,0 0,0 -0.00317,0 -0.00576,-0.00258 -0.00576,-0.00576 0,-0.00121 0.00038,-0.00239 0.00109,-0.00336 0.00065,-0.00102 0.00152,-0.00225 0.00261,-0.00369 0.00211,-0.00291 0.00308,-0.00558 0.00294,-0.00805 -0.00072,-0.01472 -0.00561,-0.02873 -0.01468,-0.04207 -0.00173,-0.00257 -0.00462,-0.00411 -0.00772,-0.00413l-0.06685 -0.0001c-0.00295,-0.00002 -0.00566,0.00181 -0.00683,0.00461l-0.0147 0.0343c-0.00227,0.00516 -0.0012,0.01139 0.0028,0.0156 0.00415,0.00408 0.00623,0.0066 0.00623,0.00755 -0.00025,0.00312 -0.00284,0.0055 -0.00589,0.00543l-0.05215 0.00033c-0.00198,-0.0001 -0.00352,-0.00173 -0.00352,-0.00369 0,-0.00116 0.00054,-0.00225 0.00146,-0.00295l0.02304 -0.01706c0.00054,-0.00039 0.00095,-0.00088 0.00122,-0.00146l0.09194 -0.21507c0.00026,-0.00058 0.0006,-0.00106 0.00102,-0.00147 0.00177,-0.00171 0.00456,-0.0017 0.00623,0.00003 0.0004,0.00042 0.00072,0.00093 0.00092,0.00148 0.0168,0.0428 0.04734,0.11177 0.09163,0.20692 0.00514,0.01109 0.01391,0.02015 0.02631,0.02717zm-0.16457 -0.08522c-0.00021,0.00051 -0.00032,0.00107 -0.00032,0.00163 0,0.0024 0.00195,0.00434 0.00435,0.00434 0.00003,0 0.00006,0 0.00009,0l0.05218 -0.00021c0.0024,-0.00001 0.00433,-0.00196 0.00433,-0.00435 0,-0.00056 -0.0001,-0.00112 -0.00031,-0.00163l-0.02631 -0.06478c-0.00064,-0.00171 -0.00227,-0.00285 -0.00408,-0.00285 -0.00182,0 -0.00343,0.00114 -0.00407,0.00284l-0.02587 0.06501z"/>
   </g>
  </g>
 </g>
</svg>
